<?xml version="1.0" standalone="no"?>
 <!DOCTYPE svg PUBLIC "-//W3C//DTD SVG 1.1//EN" 
 "http://www.w3.org/Graphics/SVG/1.1/DTD/svg11.dtd"> 
<svg
  xmlns:svg="http://www.w3.org/2000/svg"
  xmlns="http://www.w3.org/2000/svg"
  xmlns:xlink="http://www.w3.org/1999/xlink"
  version="1.1"
  width="201.9554mm" height="90.3224mm" viewBox="0.0000 0.0000 201.9554 90.3224">
<title>SVG Image created as in2.svg date 2026/05/23 20:59:13 </title>
  <desc>Image generated by PCBNEW </desc>
<g style="fill:#000000; fill-opacity:1.0000;stroke:#000000; stroke-opacity:1.0000;
stroke-linecap:round; stroke-linejoin:round;"
 transform="translate(0 0) scale(1 1)">
</g>
<g style="fill:none; 
stroke:#C872AB; stroke-width:0.1500; stroke-opacity:1; 
stroke-linecap:round; stroke-linejoin:round;">
<path d="M82.0550 51.5715
L190.0550 51.5715
L190.0550 83.5715
L82.0550 83.5715
L82.0550 51.5715
" />
</g>
<g style="fill:none; 
stroke:#C872AB; stroke-width:0.1500; stroke-opacity:1; 
stroke-linecap:round; stroke-linejoin:round;">
<path d="M10.0750 15.2482
L192.0550 15.2482
L192.0550 85.5715
L10.0750 85.5715
L10.0750 15.2482
" />
</g>
<g style="fill:none; 
stroke:#C872AB; stroke-width:0.1500; stroke-opacity:1; 
stroke-linecap:round; stroke-linejoin:round;">
<path d="M12.0750 17.2482
L190.0550 17.2482
L190.0550 83.5715
L12.0750 83.5715
L12.0750 17.2482
" />
</g>
<g style="fill:none; 
stroke:#C872AB; stroke-width:0.1500; stroke-opacity:1; 
stroke-linecap:round; stroke-linejoin:round;">
<path d="M60.0750 17.2482
L60.0750 15.2482
" />
</g>
<g style="fill:none; 
stroke:#C872AB; stroke-width:0.1500; stroke-opacity:1; 
stroke-linecap:round; stroke-linejoin:round;">
<path d="M110.0750 17.2482
L110.0750 15.2482
" />
</g>
<g style="fill:none; 
stroke:#C872AB; stroke-width:0.1500; stroke-opacity:1; 
stroke-linecap:round; stroke-linejoin:round;">
<path d="M160.0750 17.2482
L160.0750 15.2482
" />
</g>
<g style="fill:none; 
stroke:#C872AB; stroke-width:0.1500; stroke-opacity:1; 
stroke-linecap:round; stroke-linejoin:round;">
<text x="35.0750" y="16.8983"
textLength="1.4281" font-size="1.7333" lengthAdjust="spacingAndGlyphs"
text-anchor="start" opacity="0" stroke-opacity="0">1</text>
<g class="stroked-text"><desc>1</desc>
<path d="M36.1642 16.8419
L35.4213 16.8419
" />
<path d="M35.7927 16.8419
L35.7927 15.5419
" />
<path d="M35.7927 15.5419
L35.6689 15.7276
" />
<path d="M35.6689 15.7276
L35.5451 15.8514
" />
<path d="M35.5451 15.8514
L35.4213 15.9133
" />
</g></g>
<g style="fill:none; 
stroke:#C872AB; stroke-width:0.1500; stroke-opacity:1; 
stroke-linecap:round; stroke-linejoin:round;">
<text x="85.0750" y="16.8983"
textLength="1.4281" font-size="1.7333" lengthAdjust="spacingAndGlyphs"
text-anchor="start" opacity="0" stroke-opacity="0">2</text>
<g class="stroked-text"><desc>2</desc>
<path d="M85.4213 15.6657
L85.4832 15.6038
" />
<path d="M85.4832 15.6038
L85.6070 15.5419
" />
<path d="M85.6070 15.5419
L85.9165 15.5419
" />
<path d="M85.9165 15.5419
L86.0403 15.6038
" />
<path d="M86.0403 15.6038
L86.1023 15.6657
" />
<path d="M86.1023 15.6657
L86.1642 15.7895
" />
<path d="M86.1642 15.7895
L86.1642 15.9133
" />
<path d="M86.1642 15.9133
L86.1023 16.0990
" />
<path d="M86.1023 16.0990
L85.3594 16.8419
" />
<path d="M85.3594 16.8419
L86.1642 16.8419
" />
</g></g>
<g style="fill:none; 
stroke:#C872AB; stroke-width:0.1500; stroke-opacity:1; 
stroke-linecap:round; stroke-linejoin:round;">
<text x="135.0750" y="16.8983"
textLength="1.4281" font-size="1.7333" lengthAdjust="spacingAndGlyphs"
text-anchor="start" opacity="0" stroke-opacity="0">3</text>
<g class="stroked-text"><desc>3</desc>
<path d="M135.3594 15.5419
L136.1642 15.5419
" />
<path d="M136.1642 15.5419
L135.7308 16.0371
" />
<path d="M135.7308 16.0371
L135.9165 16.0371
" />
<path d="M135.9165 16.0371
L136.0403 16.0990
" />
<path d="M136.0403 16.0990
L136.1023 16.1609
" />
<path d="M136.1023 16.1609
L136.1642 16.2847
" />
<path d="M136.1642 16.2847
L136.1642 16.5942
" />
<path d="M136.1642 16.5942
L136.1023 16.7180
" />
<path d="M136.1023 16.7180
L136.0403 16.7799
" />
<path d="M136.0403 16.7799
L135.9165 16.8419
" />
<path d="M135.9165 16.8419
L135.5451 16.8419
" />
<path d="M135.5451 16.8419
L135.4213 16.7799
" />
<path d="M135.4213 16.7799
L135.3594 16.7180
" />
</g></g>
<g style="fill:none; 
stroke:#C872AB; stroke-width:0.1500; stroke-opacity:1; 
stroke-linecap:round; stroke-linejoin:round;">
<text x="185.0750" y="16.8983"
textLength="1.4281" font-size="1.7333" lengthAdjust="spacingAndGlyphs"
text-anchor="start" opacity="0" stroke-opacity="0">4</text>
<g class="stroked-text"><desc>4</desc>
<path d="M186.0403 15.9752
L186.0403 16.8419
" />
<path d="M185.7308 15.4799
L185.4213 16.4085
" />
<path d="M185.4213 16.4085
L186.2261 16.4085
" />
</g></g>
<g style="fill:none; 
stroke:#C872AB; stroke-width:0.1500; stroke-opacity:1; 
stroke-linecap:round; stroke-linejoin:round;">
<path d="M60.0750 83.5715
L60.0750 85.5715
" />
</g>
<g style="fill:none; 
stroke:#C872AB; stroke-width:0.1500; stroke-opacity:1; 
stroke-linecap:round; stroke-linejoin:round;">
<path d="M110.0750 83.5715
L110.0750 85.5715
" />
</g>
<g style="fill:none; 
stroke:#C872AB; stroke-width:0.1500; stroke-opacity:1; 
stroke-linecap:round; stroke-linejoin:round;">
<path d="M160.0750 83.5715
L160.0750 85.5715
" />
</g>
<g style="fill:none; 
stroke:#C872AB; stroke-width:0.1500; stroke-opacity:1; 
stroke-linecap:round; stroke-linejoin:round;">
<text x="35.0750" y="85.2215"
textLength="1.4281" font-size="1.7333" lengthAdjust="spacingAndGlyphs"
text-anchor="start" opacity="0" stroke-opacity="0">1</text>
<g class="stroked-text"><desc>1</desc>
<path d="M36.1642 85.1651
L35.4213 85.1651
" />
<path d="M35.7927 85.1651
L35.7927 83.8651
" />
<path d="M35.7927 83.8651
L35.6689 84.0508
" />
<path d="M35.6689 84.0508
L35.5451 84.1746
" />
<path d="M35.5451 84.1746
L35.4213 84.2365
" />
</g></g>
<g style="fill:none; 
stroke:#C872AB; stroke-width:0.1500; stroke-opacity:1; 
stroke-linecap:round; stroke-linejoin:round;">
<text x="85.0750" y="85.2215"
textLength="1.4281" font-size="1.7333" lengthAdjust="spacingAndGlyphs"
text-anchor="start" opacity="0" stroke-opacity="0">2</text>
<g class="stroked-text"><desc>2</desc>
<path d="M85.4213 83.9889
L85.4832 83.9270
" />
<path d="M85.4832 83.9270
L85.6070 83.8651
" />
<path d="M85.6070 83.8651
L85.9165 83.8651
" />
<path d="M85.9165 83.8651
L86.0403 83.9270
" />
<path d="M86.0403 83.9270
L86.1023 83.9889
" />
<path d="M86.1023 83.9889
L86.1642 84.1127
" />
<path d="M86.1642 84.1127
L86.1642 84.2365
" />
<path d="M86.1642 84.2365
L86.1023 84.4222
" />
<path d="M86.1023 84.4222
L85.3594 85.1651
" />
<path d="M85.3594 85.1651
L86.1642 85.1651
" />
</g></g>
<g style="fill:none; 
stroke:#C872AB; stroke-width:0.1500; stroke-opacity:1; 
stroke-linecap:round; stroke-linejoin:round;">
<text x="135.0750" y="85.2215"
textLength="1.4281" font-size="1.7333" lengthAdjust="spacingAndGlyphs"
text-anchor="start" opacity="0" stroke-opacity="0">3</text>
<g class="stroked-text"><desc>3</desc>
<path d="M135.3594 83.8651
L136.1642 83.8651
" />
<path d="M136.1642 83.8651
L135.7308 84.3603
" />
<path d="M135.7308 84.3603
L135.9165 84.3603
" />
<path d="M135.9165 84.3603
L136.0403 84.4222
" />
<path d="M136.0403 84.4222
L136.1023 84.4842
" />
<path d="M136.1023 84.4842
L136.1642 84.6080
" />
<path d="M136.1642 84.6080
L136.1642 84.9175
" />
<path d="M136.1642 84.9175
L136.1023 85.0413
" />
<path d="M136.1023 85.0413
L136.0403 85.1032
" />
<path d="M136.0403 85.1032
L135.9165 85.1651
" />
<path d="M135.9165 85.1651
L135.5451 85.1651
" />
<path d="M135.5451 85.1651
L135.4213 85.1032
" />
<path d="M135.4213 85.1032
L135.3594 85.0413
" />
</g></g>
<g style="fill:none; 
stroke:#C872AB; stroke-width:0.1500; stroke-opacity:1; 
stroke-linecap:round; stroke-linejoin:round;">
<text x="185.0750" y="85.2215"
textLength="1.4281" font-size="1.7333" lengthAdjust="spacingAndGlyphs"
text-anchor="start" opacity="0" stroke-opacity="0">4</text>
<g class="stroked-text"><desc>4</desc>
<path d="M186.0403 84.2984
L186.0403 85.1651
" />
<path d="M185.7308 83.8032
L185.4213 84.7318
" />
<path d="M185.4213 84.7318
L186.2261 84.7318
" />
</g></g>
<g style="fill:none; 
stroke:#C872AB; stroke-width:0.1500; stroke-opacity:1; 
stroke-linecap:round; stroke-linejoin:round;">
<path d="M10.0750 65.2482
L12.0750 65.2482
" />
</g>
<g style="fill:none; 
stroke:#C872AB; stroke-width:0.1500; stroke-opacity:1; 
stroke-linecap:round; stroke-linejoin:round;">
<text x="11.0750" y="40.8982"
textLength="1.3043" font-size="1.7333" lengthAdjust="spacingAndGlyphs"
text-anchor="middle" opacity="0" stroke-opacity="0">A</text>
<g class="stroked-text"><desc>A</desc>
<path d="M10.7655 40.4704
L11.3845 40.4704
" />
<path d="M10.6417 40.8419
L11.0750 39.5419
" />
<path d="M11.0750 39.5419
L11.5083 40.8419
" />
</g></g>
<g style="fill:none; 
stroke:#C872AB; stroke-width:0.1500; stroke-opacity:1; 
stroke-linecap:round; stroke-linejoin:round;">
<path d="M192.0550 65.2482
L190.0550 65.2482
" />
</g>
<g style="fill:none; 
stroke:#C872AB; stroke-width:0.1500; stroke-opacity:1; 
stroke-linecap:round; stroke-linejoin:round;">
<text x="191.0550" y="40.8982"
textLength="1.3043" font-size="1.7333" lengthAdjust="spacingAndGlyphs"
text-anchor="middle" opacity="0" stroke-opacity="0">A</text>
<g class="stroked-text"><desc>A</desc>
<path d="M190.7455 40.4704
L191.3645 40.4704
" />
<path d="M190.6217 40.8419
L191.0550 39.5419
" />
<path d="M191.0550 39.5419
L191.4883 40.8419
" />
</g></g>
<g style="fill:none; 
stroke:#C872AB; stroke-width:0.1500; stroke-opacity:1; 
stroke-linecap:round; stroke-linejoin:round;">
<text x="105.0550" y="79.4215"
textLength="7.0071" font-size="2.0000" lengthAdjust="spacingAndGlyphs"
text-anchor="start" opacity="0" stroke-opacity="0">Date: </text>
<g class="stroked-text"><desc>Date: </desc>
<path d="M105.5108 79.3576
L105.5108 77.8576
" />
<path d="M105.5108 77.8576
L105.8680 77.8576
" />
<path d="M105.8680 77.8576
L106.0823 77.9291
" />
<path d="M106.0823 77.9291
L106.2251 78.0719
" />
<path d="M106.2251 78.0719
L106.2965 78.2148
" />
<path d="M106.2965 78.2148
L106.3680 78.5005
" />
<path d="M106.3680 78.5005
L106.3680 78.7148
" />
<path d="M106.3680 78.7148
L106.2965 79.0005
" />
<path d="M106.2965 79.0005
L106.2251 79.1433
" />
<path d="M106.2251 79.1433
L106.0823 79.2862
" />
<path d="M106.0823 79.2862
L105.8680 79.3576
" />
<path d="M105.8680 79.3576
L105.5108 79.3576
" />
<path d="M107.6537 79.3576
L107.6537 78.5719
" />
<path d="M107.6537 78.5719
L107.5823 78.4291
" />
<path d="M107.5823 78.4291
L107.4394 78.3576
" />
<path d="M107.4394 78.3576
L107.1537 78.3576
" />
<path d="M107.1537 78.3576
L107.0108 78.4291
" />
<path d="M107.6537 79.2862
L107.5108 79.3576
" />
<path d="M107.5108 79.3576
L107.1537 79.3576
" />
<path d="M107.1537 79.3576
L107.0108 79.2862
" />
<path d="M107.0108 79.2862
L106.9394 79.1433
" />
<path d="M106.9394 79.1433
L106.9394 79.0005
" />
<path d="M106.9394 79.0005
L107.0108 78.8576
" />
<path d="M107.0108 78.8576
L107.1537 78.7862
" />
<path d="M107.1537 78.7862
L107.5108 78.7862
" />
<path d="M107.5108 78.7862
L107.6537 78.7148
" />
<path d="M108.1537 78.3576
L108.7251 78.3576
" />
<path d="M108.3680 77.8576
L108.3680 79.1433
" />
<path d="M108.3680 79.1433
L108.4394 79.2862
" />
<path d="M108.4394 79.2862
L108.5823 79.3576
" />
<path d="M108.5823 79.3576
L108.7251 79.3576
" />
<path d="M109.7965 79.2862
L109.6537 79.3576
" />
<path d="M109.6537 79.3576
L109.3680 79.3576
" />
<path d="M109.3680 79.3576
L109.2251 79.2862
" />
<path d="M109.2251 79.2862
L109.1537 79.1433
" />
<path d="M109.1537 79.1433
L109.1537 78.5719
" />
<path d="M109.1537 78.5719
L109.2251 78.4291
" />
<path d="M109.2251 78.4291
L109.3680 78.3576
" />
<path d="M109.3680 78.3576
L109.6537 78.3576
" />
<path d="M109.6537 78.3576
L109.7965 78.4291
" />
<path d="M109.7965 78.4291
L109.8680 78.5719
" />
<path d="M109.8680 78.5719
L109.8680 78.7148
" />
<path d="M109.8680 78.7148
L109.1537 78.8576
" />
<path d="M110.5108 79.2148
L110.5823 79.2862
" />
<path d="M110.5823 79.2862
L110.5108 79.3576
" />
<path d="M110.5108 79.3576
L110.4394 79.2862
" />
<path d="M110.4394 79.2862
L110.5108 79.2148
" />
<path d="M110.5108 79.2148
L110.5108 79.3576
" />
<path d="M110.5108 78.4291
L110.5823 78.5005
" />
<path d="M110.5823 78.5005
L110.5108 78.5719
" />
<path d="M110.5108 78.5719
L110.4394 78.5005
" />
<path d="M110.4394 78.5005
L110.5108 78.4291
" />
<path d="M110.5108 78.4291
L110.5108 78.5719
" />
</g></g>
<g style="fill:none; 
stroke:#C872AB; stroke-width:0.1500; stroke-opacity:1; 
stroke-linecap:round; stroke-linejoin:round;">
<path d="M82.0550 80.0715
L190.0550 80.0715
" />
</g>
<g style="fill:none; 
stroke:#C872AB; stroke-width:0.1500; stroke-opacity:1; 
stroke-linecap:round; stroke-linejoin:round;">
<text x="83.0550" y="82.2215"
textLength="20.8643" font-size="2.0000" lengthAdjust="spacingAndGlyphs"
text-anchor="start" opacity="0" stroke-opacity="0">KiCad E.D.A. 9.0.2</text>
<g class="stroked-text"><desc>KiCad E.D.A. 9.0.2</desc>
<path d="M83.5108 82.1576
L83.5108 80.6576
" />
<path d="M84.3680 82.1576
L83.7251 81.3005
" />
<path d="M84.3680 80.6576
L83.5108 81.5148
" />
<path d="M85.0108 82.1576
L85.0108 81.1576
" />
<path d="M85.0108 80.6576
L84.9394 80.7291
" />
<path d="M84.9394 80.7291
L85.0108 80.8005
" />
<path d="M85.0108 80.8005
L85.0823 80.7291
" />
<path d="M85.0823 80.7291
L85.0108 80.6576
" />
<path d="M85.0108 80.6576
L85.0108 80.8005
" />
<path d="M86.5823 82.0148
L86.5108 82.0862
" />
<path d="M86.5108 82.0862
L86.2965 82.1576
" />
<path d="M86.2965 82.1576
L86.1537 82.1576
" />
<path d="M86.1537 82.1576
L85.9394 82.0862
" />
<path d="M85.9394 82.0862
L85.7965 81.9433
" />
<path d="M85.7965 81.9433
L85.7251 81.8005
" />
<path d="M85.7251 81.8005
L85.6537 81.5148
" />
<path d="M85.6537 81.5148
L85.6537 81.3005
" />
<path d="M85.6537 81.3005
L85.7251 81.0148
" />
<path d="M85.7251 81.0148
L85.7965 80.8719
" />
<path d="M85.7965 80.8719
L85.9394 80.7291
" />
<path d="M85.9394 80.7291
L86.1537 80.6576
" />
<path d="M86.1537 80.6576
L86.2965 80.6576
" />
<path d="M86.2965 80.6576
L86.5108 80.7291
" />
<path d="M86.5108 80.7291
L86.5823 80.8005
" />
<path d="M87.8680 82.1576
L87.8680 81.3719
" />
<path d="M87.8680 81.3719
L87.7965 81.2291
" />
<path d="M87.7965 81.2291
L87.6537 81.1576
" />
<path d="M87.6537 81.1576
L87.3680 81.1576
" />
<path d="M87.3680 81.1576
L87.2251 81.2291
" />
<path d="M87.8680 82.0862
L87.7251 82.1576
" />
<path d="M87.7251 82.1576
L87.3680 82.1576
" />
<path d="M87.3680 82.1576
L87.2251 82.0862
" />
<path d="M87.2251 82.0862
L87.1537 81.9433
" />
<path d="M87.1537 81.9433
L87.1537 81.8005
" />
<path d="M87.1537 81.8005
L87.2251 81.6576
" />
<path d="M87.2251 81.6576
L87.3680 81.5862
" />
<path d="M87.3680 81.5862
L87.7251 81.5862
" />
<path d="M87.7251 81.5862
L87.8680 81.5148
" />
<path d="M89.2251 82.1576
L89.2251 80.6576
" />
<path d="M89.2251 82.0862
L89.0823 82.1576
" />
<path d="M89.0823 82.1576
L88.7965 82.1576
" />
<path d="M88.7965 82.1576
L88.6537 82.0862
" />
<path d="M88.6537 82.0862
L88.5823 82.0148
" />
<path d="M88.5823 82.0148
L88.5108 81.8719
" />
<path d="M88.5108 81.8719
L88.5108 81.4433
" />
<path d="M88.5108 81.4433
L88.5823 81.3005
" />
<path d="M88.5823 81.3005
L88.6537 81.2291
" />
<path d="M88.6537 81.2291
L88.7965 81.1576
" />
<path d="M88.7965 81.1576
L89.0823 81.1576
" />
<path d="M89.0823 81.1576
L89.2251 81.2291
" />
<path d="M91.0823 81.3719
L91.5823 81.3719
" />
<path d="M91.7965 82.1576
L91.0823 82.1576
" />
<path d="M91.0823 82.1576
L91.0823 80.6576
" />
<path d="M91.0823 80.6576
L91.7965 80.6576
" />
<path d="M92.4394 82.0148
L92.5108 82.0862
" />
<path d="M92.5108 82.0862
L92.4394 82.1576
" />
<path d="M92.4394 82.1576
L92.3680 82.0862
" />
<path d="M92.3680 82.0862
L92.4394 82.0148
" />
<path d="M92.4394 82.0148
L92.4394 82.1576
" />
<path d="M93.1537 82.1576
L93.1537 80.6576
" />
<path d="M93.1537 80.6576
L93.5108 80.6576
" />
<path d="M93.5108 80.6576
L93.7251 80.7291
" />
<path d="M93.7251 80.7291
L93.8680 80.8719
" />
<path d="M93.8680 80.8719
L93.9394 81.0148
" />
<path d="M93.9394 81.0148
L94.0108 81.3005
" />
<path d="M94.0108 81.3005
L94.0108 81.5148
" />
<path d="M94.0108 81.5148
L93.9394 81.8005
" />
<path d="M93.9394 81.8005
L93.8680 81.9433
" />
<path d="M93.8680 81.9433
L93.7251 82.0862
" />
<path d="M93.7251 82.0862
L93.5108 82.1576
" />
<path d="M93.5108 82.1576
L93.1537 82.1576
" />
<path d="M94.6537 82.0148
L94.7251 82.0862
" />
<path d="M94.7251 82.0862
L94.6537 82.1576
" />
<path d="M94.6537 82.1576
L94.5823 82.0862
" />
<path d="M94.5823 82.0862
L94.6537 82.0148
" />
<path d="M94.6537 82.0148
L94.6537 82.1576
" />
<path d="M95.2965 81.7291
L96.0108 81.7291
" />
<path d="M95.1537 82.1576
L95.6537 80.6576
" />
<path d="M95.6537 80.6576
L96.1537 82.1576
" />
<path d="M96.6537 82.0148
L96.7251 82.0862
" />
<path d="M96.7251 82.0862
L96.6537 82.1576
" />
<path d="M96.6537 82.1576
L96.5823 82.0862
" />
<path d="M96.5823 82.0862
L96.6537 82.0148
" />
<path d="M96.6537 82.0148
L96.6537 82.1576
" />
<path d="M98.5823 82.1576
L98.8680 82.1576
" />
<path d="M98.8680 82.1576
L99.0108 82.0862
" />
<path d="M99.0108 82.0862
L99.0823 82.0148
" />
<path d="M99.0823 82.0148
L99.2251 81.8005
" />
<path d="M99.2251 81.8005
L99.2965 81.5148
" />
<path d="M99.2965 81.5148
L99.2965 80.9433
" />
<path d="M99.2965 80.9433
L99.2251 80.8005
" />
<path d="M99.2251 80.8005
L99.1537 80.7291
" />
<path d="M99.1537 80.7291
L99.0108 80.6576
" />
<path d="M99.0108 80.6576
L98.7251 80.6576
" />
<path d="M98.7251 80.6576
L98.5823 80.7291
" />
<path d="M98.5823 80.7291
L98.5108 80.8005
" />
<path d="M98.5108 80.8005
L98.4394 80.9433
" />
<path d="M98.4394 80.9433
L98.4394 81.3005
" />
<path d="M98.4394 81.3005
L98.5108 81.4433
" />
<path d="M98.5108 81.4433
L98.5823 81.5148
" />
<path d="M98.5823 81.5148
L98.7251 81.5862
" />
<path d="M98.7251 81.5862
L99.0108 81.5862
" />
<path d="M99.0108 81.5862
L99.1537 81.5148
" />
<path d="M99.1537 81.5148
L99.2251 81.4433
" />
<path d="M99.2251 81.4433
L99.2965 81.3005
" />
<path d="M99.9394 82.0148
L100.0108 82.0862
" />
<path d="M100.0108 82.0862
L99.9394 82.1576
" />
<path d="M99.9394 82.1576
L99.8680 82.0862
" />
<path d="M99.8680 82.0862
L99.9394 82.0148
" />
<path d="M99.9394 82.0148
L99.9394 82.1576
" />
<path d="M100.9394 80.6576
L101.0823 80.6576
" />
<path d="M101.0823 80.6576
L101.2251 80.7291
" />
<path d="M101.2251 80.7291
L101.2965 80.8005
" />
<path d="M101.2965 80.8005
L101.3680 80.9433
" />
<path d="M101.3680 80.9433
L101.4394 81.2291
" />
<path d="M101.4394 81.2291
L101.4394 81.5862
" />
<path d="M101.4394 81.5862
L101.3680 81.8719
" />
<path d="M101.3680 81.8719
L101.2965 82.0148
" />
<path d="M101.2965 82.0148
L101.2251 82.0862
" />
<path d="M101.2251 82.0862
L101.0823 82.1576
" />
<path d="M101.0823 82.1576
L100.9394 82.1576
" />
<path d="M100.9394 82.1576
L100.7965 82.0862
" />
<path d="M100.7965 82.0862
L100.7251 82.0148
" />
<path d="M100.7251 82.0148
L100.6537 81.8719
" />
<path d="M100.6537 81.8719
L100.5823 81.5862
" />
<path d="M100.5823 81.5862
L100.5823 81.2291
" />
<path d="M100.5823 81.2291
L100.6537 80.9433
" />
<path d="M100.6537 80.9433
L100.7251 80.8005
" />
<path d="M100.7251 80.8005
L100.7965 80.7291
" />
<path d="M100.7965 80.7291
L100.9394 80.6576
" />
<path d="M102.0823 82.0148
L102.1537 82.0862
" />
<path d="M102.1537 82.0862
L102.0823 82.1576
" />
<path d="M102.0823 82.1576
L102.0108 82.0862
" />
<path d="M102.0108 82.0862
L102.0823 82.0148
" />
<path d="M102.0823 82.0148
L102.0823 82.1576
" />
<path d="M102.7251 80.8005
L102.7965 80.7291
" />
<path d="M102.7965 80.7291
L102.9394 80.6576
" />
<path d="M102.9394 80.6576
L103.2965 80.6576
" />
<path d="M103.2965 80.6576
L103.4394 80.7291
" />
<path d="M103.4394 80.7291
L103.5108 80.8005
" />
<path d="M103.5108 80.8005
L103.5823 80.9433
" />
<path d="M103.5823 80.9433
L103.5823 81.0862
" />
<path d="M103.5823 81.0862
L103.5108 81.3005
" />
<path d="M103.5108 81.3005
L102.6537 82.1576
" />
<path d="M102.6537 82.1576
L103.5823 82.1576
" />
</g></g>
<g style="fill:none; 
stroke:#C872AB; stroke-width:0.1500; stroke-opacity:1; 
stroke-linecap:round; stroke-linejoin:round;">
<path d="M82.0550 77.0715
L190.0550 77.0715
" />
</g>
<g style="fill:none; 
stroke:#C872AB; stroke-width:0.3000; stroke-opacity:1; 
stroke-linecap:round; stroke-linejoin:round;">
<text x="168.0550" y="79.4215"
textLength="6.3857" font-size="2.0000" lengthAdjust="spacingAndGlyphs"
text-anchor="start" opacity="0" stroke-opacity="0">Rev: </text>
<g class="stroked-text"><desc>Rev: </desc>
<path d="M169.4667 79.3498
L168.9667 78.6355
" />
<path d="M168.6095 79.3498
L168.6095 77.8498
" />
<path d="M168.6095 77.8498
L169.1809 77.8498
" />
<path d="M169.1809 77.8498
L169.3238 77.9213
" />
<path d="M169.3238 77.9213
L169.3952 77.9927
" />
<path d="M169.3952 77.9927
L169.4667 78.1355
" />
<path d="M169.4667 78.1355
L169.4667 78.3498
" />
<path d="M169.4667 78.3498
L169.3952 78.4927
" />
<path d="M169.3952 78.4927
L169.3238 78.5641
" />
<path d="M169.3238 78.5641
L169.1809 78.6355
" />
<path d="M169.1809 78.6355
L168.6095 78.6355
" />
<path d="M170.6809 79.2784
L170.5381 79.3498
" />
<path d="M170.5381 79.3498
L170.2524 79.3498
" />
<path d="M170.2524 79.3498
L170.1095 79.2784
" />
<path d="M170.1095 79.2784
L170.0381 79.1355
" />
<path d="M170.0381 79.1355
L170.0381 78.5641
" />
<path d="M170.0381 78.5641
L170.1095 78.4213
" />
<path d="M170.1095 78.4213
L170.2524 78.3498
" />
<path d="M170.2524 78.3498
L170.5381 78.3498
" />
<path d="M170.5381 78.3498
L170.6809 78.4213
" />
<path d="M170.6809 78.4213
L170.7524 78.5641
" />
<path d="M170.7524 78.5641
L170.7524 78.7070
" />
<path d="M170.7524 78.7070
L170.0381 78.8498
" />
<path d="M171.2524 78.3498
L171.6095 79.3498
" />
<path d="M171.6095 79.3498
L171.9667 78.3498
" />
<path d="M172.5381 79.2070
L172.6095 79.2784
" />
<path d="M172.6095 79.2784
L172.5381 79.3498
" />
<path d="M172.5381 79.3498
L172.4667 79.2784
" />
<path d="M172.4667 79.2784
L172.5381 79.2070
" />
<path d="M172.5381 79.2070
L172.5381 79.3498
" />
<path d="M172.5381 78.4213
L172.6095 78.4927
" />
<path d="M172.6095 78.4927
L172.5381 78.5641
" />
<path d="M172.5381 78.5641
L172.4667 78.4927
" />
<path d="M172.4667 78.4927
L172.5381 78.4213
" />
<path d="M172.5381 78.4213
L172.5381 78.5641
" />
</g></g>
<g style="fill:none; 
stroke:#C872AB; stroke-width:0.1500; stroke-opacity:1; 
stroke-linecap:round; stroke-linejoin:round;">
<text x="83.0550" y="79.4215"
textLength="11.6500" font-size="2.0000" lengthAdjust="spacingAndGlyphs"
text-anchor="start" opacity="0" stroke-opacity="0">Size: User</text>
<g class="stroked-text"><desc>Size: User</desc>
<path d="M83.4394 79.2862
L83.6537 79.3576
" />
<path d="M83.6537 79.3576
L84.0108 79.3576
" />
<path d="M84.0108 79.3576
L84.1537 79.2862
" />
<path d="M84.1537 79.2862
L84.2251 79.2148
" />
<path d="M84.2251 79.2148
L84.2965 79.0719
" />
<path d="M84.2965 79.0719
L84.2965 78.9291
" />
<path d="M84.2965 78.9291
L84.2251 78.7862
" />
<path d="M84.2251 78.7862
L84.1537 78.7148
" />
<path d="M84.1537 78.7148
L84.0108 78.6433
" />
<path d="M84.0108 78.6433
L83.7251 78.5719
" />
<path d="M83.7251 78.5719
L83.5823 78.5005
" />
<path d="M83.5823 78.5005
L83.5108 78.4291
" />
<path d="M83.5108 78.4291
L83.4394 78.2862
" />
<path d="M83.4394 78.2862
L83.4394 78.1433
" />
<path d="M83.4394 78.1433
L83.5108 78.0005
" />
<path d="M83.5108 78.0005
L83.5823 77.9291
" />
<path d="M83.5823 77.9291
L83.7251 77.8576
" />
<path d="M83.7251 77.8576
L84.0823 77.8576
" />
<path d="M84.0823 77.8576
L84.2965 77.9291
" />
<path d="M84.9394 79.3576
L84.9394 78.3576
" />
<path d="M84.9394 77.8576
L84.8680 77.9291
" />
<path d="M84.8680 77.9291
L84.9394 78.0005
" />
<path d="M84.9394 78.0005
L85.0108 77.9291
" />
<path d="M85.0108 77.9291
L84.9394 77.8576
" />
<path d="M84.9394 77.8576
L84.9394 78.0005
" />
<path d="M85.5108 78.3576
L86.2965 78.3576
" />
<path d="M86.2965 78.3576
L85.5108 79.3576
" />
<path d="M85.5108 79.3576
L86.2965 79.3576
" />
<path d="M87.4394 79.2862
L87.2965 79.3576
" />
<path d="M87.2965 79.3576
L87.0108 79.3576
" />
<path d="M87.0108 79.3576
L86.8680 79.2862
" />
<path d="M86.8680 79.2862
L86.7965 79.1433
" />
<path d="M86.7965 79.1433
L86.7965 78.5719
" />
<path d="M86.7965 78.5719
L86.8680 78.4291
" />
<path d="M86.8680 78.4291
L87.0108 78.3576
" />
<path d="M87.0108 78.3576
L87.2965 78.3576
" />
<path d="M87.2965 78.3576
L87.4394 78.4291
" />
<path d="M87.4394 78.4291
L87.5108 78.5719
" />
<path d="M87.5108 78.5719
L87.5108 78.7148
" />
<path d="M87.5108 78.7148
L86.7965 78.8576
" />
<path d="M88.1537 79.2148
L88.2251 79.2862
" />
<path d="M88.2251 79.2862
L88.1537 79.3576
" />
<path d="M88.1537 79.3576
L88.0823 79.2862
" />
<path d="M88.0823 79.2862
L88.1537 79.2148
" />
<path d="M88.1537 79.2148
L88.1537 79.3576
" />
<path d="M88.1537 78.4291
L88.2251 78.5005
" />
<path d="M88.2251 78.5005
L88.1537 78.5719
" />
<path d="M88.1537 78.5719
L88.0823 78.5005
" />
<path d="M88.0823 78.5005
L88.1537 78.4291
" />
<path d="M88.1537 78.4291
L88.1537 78.5719
" />
<path d="M90.0108 77.8576
L90.0108 79.0719
" />
<path d="M90.0108 79.0719
L90.0823 79.2148
" />
<path d="M90.0823 79.2148
L90.1537 79.2862
" />
<path d="M90.1537 79.2862
L90.2965 79.3576
" />
<path d="M90.2965 79.3576
L90.5823 79.3576
" />
<path d="M90.5823 79.3576
L90.7251 79.2862
" />
<path d="M90.7251 79.2862
L90.7965 79.2148
" />
<path d="M90.7965 79.2148
L90.8680 79.0719
" />
<path d="M90.8680 79.0719
L90.8680 77.8576
" />
<path d="M91.5108 79.2862
L91.6537 79.3576
" />
<path d="M91.6537 79.3576
L91.9394 79.3576
" />
<path d="M91.9394 79.3576
L92.0823 79.2862
" />
<path d="M92.0823 79.2862
L92.1537 79.1433
" />
<path d="M92.1537 79.1433
L92.1537 79.0719
" />
<path d="M92.1537 79.0719
L92.0823 78.9291
" />
<path d="M92.0823 78.9291
L91.9394 78.8576
" />
<path d="M91.9394 78.8576
L91.7251 78.8576
" />
<path d="M91.7251 78.8576
L91.5823 78.7862
" />
<path d="M91.5823 78.7862
L91.5108 78.6433
" />
<path d="M91.5108 78.6433
L91.5108 78.5719
" />
<path d="M91.5108 78.5719
L91.5823 78.4291
" />
<path d="M91.5823 78.4291
L91.7251 78.3576
" />
<path d="M91.7251 78.3576
L91.9394 78.3576
" />
<path d="M91.9394 78.3576
L92.0823 78.4291
" />
<path d="M93.3680 79.2862
L93.2251 79.3576
" />
<path d="M93.2251 79.3576
L92.9394 79.3576
" />
<path d="M92.9394 79.3576
L92.7965 79.2862
" />
<path d="M92.7965 79.2862
L92.7251 79.1433
" />
<path d="M92.7251 79.1433
L92.7251 78.5719
" />
<path d="M92.7251 78.5719
L92.7965 78.4291
" />
<path d="M92.7965 78.4291
L92.9394 78.3576
" />
<path d="M92.9394 78.3576
L93.2251 78.3576
" />
<path d="M93.2251 78.3576
L93.3680 78.4291
" />
<path d="M93.3680 78.4291
L93.4394 78.5719
" />
<path d="M93.4394 78.5719
L93.4394 78.7148
" />
<path d="M93.4394 78.7148
L92.7251 78.8576
" />
<path d="M94.0823 79.3576
L94.0823 78.3576
" />
<path d="M94.0823 78.6433
L94.1537 78.5005
" />
<path d="M94.1537 78.5005
L94.2251 78.4291
" />
<path d="M94.2251 78.4291
L94.3680 78.3576
" />
<path d="M94.3680 78.3576
L94.5108 78.3576
" />
</g></g>
<g style="fill:none; 
stroke:#C872AB; stroke-width:0.1500; stroke-opacity:1; 
stroke-linecap:round; stroke-linejoin:round;">
<text x="168.0550" y="82.2215"
textLength="8.5071" font-size="2.0000" lengthAdjust="spacingAndGlyphs"
text-anchor="start" opacity="0" stroke-opacity="0">Id: 1/1</text>
<g class="stroked-text"><desc>Id: 1/1</desc>
<path d="M168.5108 82.1576
L168.5108 80.6576
" />
<path d="M169.8680 82.1576
L169.8680 80.6576
" />
<path d="M169.8680 82.0862
L169.7251 82.1576
" />
<path d="M169.7251 82.1576
L169.4394 82.1576
" />
<path d="M169.4394 82.1576
L169.2965 82.0862
" />
<path d="M169.2965 82.0862
L169.2251 82.0148
" />
<path d="M169.2251 82.0148
L169.1537 81.8719
" />
<path d="M169.1537 81.8719
L169.1537 81.4433
" />
<path d="M169.1537 81.4433
L169.2251 81.3005
" />
<path d="M169.2251 81.3005
L169.2965 81.2291
" />
<path d="M169.2965 81.2291
L169.4394 81.1576
" />
<path d="M169.4394 81.1576
L169.7251 81.1576
" />
<path d="M169.7251 81.1576
L169.8680 81.2291
" />
<path d="M170.5823 82.0148
L170.6537 82.0862
" />
<path d="M170.6537 82.0862
L170.5823 82.1576
" />
<path d="M170.5823 82.1576
L170.5108 82.0862
" />
<path d="M170.5108 82.0862
L170.5823 82.0148
" />
<path d="M170.5823 82.0148
L170.5823 82.1576
" />
<path d="M170.5823 81.2291
L170.6537 81.3005
" />
<path d="M170.6537 81.3005
L170.5823 81.3719
" />
<path d="M170.5823 81.3719
L170.5108 81.3005
" />
<path d="M170.5108 81.3005
L170.5823 81.2291
" />
<path d="M170.5823 81.2291
L170.5823 81.3719
" />
<path d="M173.2251 82.1576
L172.3680 82.1576
" />
<path d="M172.7965 82.1576
L172.7965 80.6576
" />
<path d="M172.7965 80.6576
L172.6537 80.8719
" />
<path d="M172.6537 80.8719
L172.5108 81.0148
" />
<path d="M172.5108 81.0148
L172.3680 81.0862
" />
<path d="M174.9394 80.5862
L173.6537 82.5148
" />
<path d="M176.2251 82.1576
L175.3680 82.1576
" />
<path d="M175.7965 82.1576
L175.7965 80.6576
" />
<path d="M175.7965 80.6576
L175.6537 80.8719
" />
<path d="M175.6537 80.8719
L175.5108 81.0148
" />
<path d="M175.5108 81.0148
L175.3680 81.0862
" />
</g></g>
<g style="fill:none; 
stroke:#C872AB; stroke-width:0.1500; stroke-opacity:1; 
stroke-linecap:round; stroke-linejoin:round;">
<path d="M82.0550 73.0715
L190.0550 73.0715
" />
</g>
<g style="fill:none; 
stroke:#C872AB; stroke-width:0.4000; stroke-opacity:1; 
stroke-linecap:round; stroke-linejoin:round;">
<text x="83.0550" y="75.8715"
textLength="9.6571" font-size="2.6667" lengthAdjust="spacingAndGlyphs"
text-anchor="start" opacity="0" stroke-opacity="0">Title: </text>
<g class="stroked-text"><desc>Title: </desc>
<path d="M83.7467 73.7759
L84.8896 73.7759
" />
<path d="M84.0682 75.7759
L84.3182 73.7759
" />
<path d="M85.3063 75.7759
L85.4729 74.4426
" />
<path d="M85.5563 73.7759
L85.4491 73.8712
" />
<path d="M85.4491 73.8712
L85.5324 73.9664
" />
<path d="M85.5324 73.9664
L85.6396 73.8712
" />
<path d="M85.6396 73.8712
L85.5563 73.7759
" />
<path d="M85.5563 73.7759
L85.5324 73.9664
" />
<path d="M86.1396 74.4426
L86.9015 74.4426
" />
<path d="M86.5086 73.7759
L86.2943 75.4902
" />
<path d="M86.2943 75.4902
L86.3658 75.6807
" />
<path d="M86.3658 75.6807
L86.5443 75.7759
" />
<path d="M86.5443 75.7759
L86.7348 75.7759
" />
<path d="M87.6872 75.7759
L87.5086 75.6807
" />
<path d="M87.5086 75.6807
L87.4372 75.4902
" />
<path d="M87.4372 75.4902
L87.6515 73.7759
" />
<path d="M89.2229 75.6807
L89.0205 75.7759
" />
<path d="M89.0205 75.7759
L88.6396 75.7759
" />
<path d="M88.6396 75.7759
L88.4610 75.6807
" />
<path d="M88.4610 75.6807
L88.3896 75.4902
" />
<path d="M88.3896 75.4902
L88.4848 74.7283
" />
<path d="M88.4848 74.7283
L88.6039 74.5378
" />
<path d="M88.6039 74.5378
L88.8063 74.4426
" />
<path d="M88.8063 74.4426
L89.1872 74.4426
" />
<path d="M89.1872 74.4426
L89.3658 74.5378
" />
<path d="M89.3658 74.5378
L89.4372 74.7283
" />
<path d="M89.4372 74.7283
L89.4134 74.9188
" />
<path d="M89.4134 74.9188
L88.4372 75.1093
" />
<path d="M90.1872 75.5855
L90.2705 75.6807
" />
<path d="M90.2705 75.6807
L90.1634 75.7759
" />
<path d="M90.1634 75.7759
L90.0801 75.6807
" />
<path d="M90.0801 75.6807
L90.1872 75.5855
" />
<path d="M90.1872 75.5855
L90.1634 75.7759
" />
<path d="M90.3182 74.5378
L90.4015 74.6331
" />
<path d="M90.4015 74.6331
L90.2943 74.7283
" />
<path d="M90.2943 74.7283
L90.2110 74.6331
" />
<path d="M90.2110 74.6331
L90.3182 74.5378
" />
<path d="M90.3182 74.5378
L90.2943 74.7283
" />
</g></g>
<g style="fill:none; 
stroke:#C872AB; stroke-width:0.1500; stroke-opacity:1; 
stroke-linecap:round; stroke-linejoin:round;">
<text x="83.0550" y="72.0215"
textLength="38.4357" font-size="2.0000" lengthAdjust="spacingAndGlyphs"
text-anchor="start" opacity="0" stroke-opacity="0">File: novapcb-stepwise.kicad_pcb</text>
<g class="stroked-text"><desc>File: novapcb-stepwise.kicad_pcb</desc>
<path d="M84.0108 71.1719
L83.5108 71.1719
" />
<path d="M83.5108 71.9576
L83.5108 70.4576
" />
<path d="M83.5108 70.4576
L84.2251 70.4576
" />
<path d="M84.7965 71.9576
L84.7965 70.9576
" />
<path d="M84.7965 70.4576
L84.7251 70.5291
" />
<path d="M84.7251 70.5291
L84.7965 70.6005
" />
<path d="M84.7965 70.6005
L84.8680 70.5291
" />
<path d="M84.8680 70.5291
L84.7965 70.4576
" />
<path d="M84.7965 70.4576
L84.7965 70.6005
" />
<path d="M85.7251 71.9576
L85.5823 71.8862
" />
<path d="M85.5823 71.8862
L85.5108 71.7433
" />
<path d="M85.5108 71.7433
L85.5108 70.4576
" />
<path d="M86.8680 71.8862
L86.7251 71.9576
" />
<path d="M86.7251 71.9576
L86.4394 71.9576
" />
<path d="M86.4394 71.9576
L86.2965 71.8862
" />
<path d="M86.2965 71.8862
L86.2251 71.7433
" />
<path d="M86.2251 71.7433
L86.2251 71.1719
" />
<path d="M86.2251 71.1719
L86.2965 71.0291
" />
<path d="M86.2965 71.0291
L86.4394 70.9576
" />
<path d="M86.4394 70.9576
L86.7251 70.9576
" />
<path d="M86.7251 70.9576
L86.8680 71.0291
" />
<path d="M86.8680 71.0291
L86.9394 71.1719
" />
<path d="M86.9394 71.1719
L86.9394 71.3148
" />
<path d="M86.9394 71.3148
L86.2251 71.4576
" />
<path d="M87.5823 71.8148
L87.6537 71.8862
" />
<path d="M87.6537 71.8862
L87.5823 71.9576
" />
<path d="M87.5823 71.9576
L87.5108 71.8862
" />
<path d="M87.5108 71.8862
L87.5823 71.8148
" />
<path d="M87.5823 71.8148
L87.5823 71.9576
" />
<path d="M87.5823 71.0291
L87.6537 71.1005
" />
<path d="M87.6537 71.1005
L87.5823 71.1719
" />
<path d="M87.5823 71.1719
L87.5108 71.1005
" />
<path d="M87.5108 71.1005
L87.5823 71.0291
" />
<path d="M87.5823 71.0291
L87.5823 71.1719
" />
<path d="M89.4394 70.9576
L89.4394 71.9576
" />
<path d="M89.4394 71.1005
L89.5108 71.0291
" />
<path d="M89.5108 71.0291
L89.6537 70.9576
" />
<path d="M89.6537 70.9576
L89.8680 70.9576
" />
<path d="M89.8680 70.9576
L90.0108 71.0291
" />
<path d="M90.0108 71.0291
L90.0823 71.1719
" />
<path d="M90.0823 71.1719
L90.0823 71.9576
" />
<path d="M91.0108 71.9576
L90.8680 71.8862
" />
<path d="M90.8680 71.8862
L90.7965 71.8148
" />
<path d="M90.7965 71.8148
L90.7251 71.6719
" />
<path d="M90.7251 71.6719
L90.7251 71.2433
" />
<path d="M90.7251 71.2433
L90.7965 71.1005
" />
<path d="M90.7965 71.1005
L90.8680 71.0291
" />
<path d="M90.8680 71.0291
L91.0108 70.9576
" />
<path d="M91.0108 70.9576
L91.2251 70.9576
" />
<path d="M91.2251 70.9576
L91.3680 71.0291
" />
<path d="M91.3680 71.0291
L91.4394 71.1005
" />
<path d="M91.4394 71.1005
L91.5108 71.2433
" />
<path d="M91.5108 71.2433
L91.5108 71.6719
" />
<path d="M91.5108 71.6719
L91.4394 71.8148
" />
<path d="M91.4394 71.8148
L91.3680 71.8862
" />
<path d="M91.3680 71.8862
L91.2251 71.9576
" />
<path d="M91.2251 71.9576
L91.0108 71.9576
" />
<path d="M92.0108 70.9576
L92.3680 71.9576
" />
<path d="M92.3680 71.9576
L92.7251 70.9576
" />
<path d="M93.9394 71.9576
L93.9394 71.1719
" />
<path d="M93.9394 71.1719
L93.8680 71.0291
" />
<path d="M93.8680 71.0291
L93.7251 70.9576
" />
<path d="M93.7251 70.9576
L93.4394 70.9576
" />
<path d="M93.4394 70.9576
L93.2965 71.0291
" />
<path d="M93.9394 71.8862
L93.7965 71.9576
" />
<path d="M93.7965 71.9576
L93.4394 71.9576
" />
<path d="M93.4394 71.9576
L93.2965 71.8862
" />
<path d="M93.2965 71.8862
L93.2251 71.7433
" />
<path d="M93.2251 71.7433
L93.2251 71.6005
" />
<path d="M93.2251 71.6005
L93.2965 71.4576
" />
<path d="M93.2965 71.4576
L93.4394 71.3862
" />
<path d="M93.4394 71.3862
L93.7965 71.3862
" />
<path d="M93.7965 71.3862
L93.9394 71.3148
" />
<path d="M94.6537 70.9576
L94.6537 72.4576
" />
<path d="M94.6537 71.0291
L94.7965 70.9576
" />
<path d="M94.7965 70.9576
L95.0823 70.9576
" />
<path d="M95.0823 70.9576
L95.2251 71.0291
" />
<path d="M95.2251 71.0291
L95.2965 71.1005
" />
<path d="M95.2965 71.1005
L95.3680 71.2433
" />
<path d="M95.3680 71.2433
L95.3680 71.6719
" />
<path d="M95.3680 71.6719
L95.2965 71.8148
" />
<path d="M95.2965 71.8148
L95.2251 71.8862
" />
<path d="M95.2251 71.8862
L95.0823 71.9576
" />
<path d="M95.0823 71.9576
L94.7965 71.9576
" />
<path d="M94.7965 71.9576
L94.6537 71.8862
" />
<path d="M96.6537 71.8862
L96.5108 71.9576
" />
<path d="M96.5108 71.9576
L96.2251 71.9576
" />
<path d="M96.2251 71.9576
L96.0823 71.8862
" />
<path d="M96.0823 71.8862
L96.0108 71.8148
" />
<path d="M96.0108 71.8148
L95.9394 71.6719
" />
<path d="M95.9394 71.6719
L95.9394 71.2433
" />
<path d="M95.9394 71.2433
L96.0108 71.1005
" />
<path d="M96.0108 71.1005
L96.0823 71.0291
" />
<path d="M96.0823 71.0291
L96.2251 70.9576
" />
<path d="M96.2251 70.9576
L96.5108 70.9576
" />
<path d="M96.5108 70.9576
L96.6537 71.0291
" />
<path d="M97.2965 71.9576
L97.2965 70.4576
" />
<path d="M97.2965 71.0291
L97.4394 70.9576
" />
<path d="M97.4394 70.9576
L97.7251 70.9576
" />
<path d="M97.7251 70.9576
L97.8680 71.0291
" />
<path d="M97.8680 71.0291
L97.9394 71.1005
" />
<path d="M97.9394 71.1005
L98.0108 71.2433
" />
<path d="M98.0108 71.2433
L98.0108 71.6719
" />
<path d="M98.0108 71.6719
L97.9394 71.8148
" />
<path d="M97.9394 71.8148
L97.8680 71.8862
" />
<path d="M97.8680 71.8862
L97.7251 71.9576
" />
<path d="M97.7251 71.9576
L97.4394 71.9576
" />
<path d="M97.4394 71.9576
L97.2965 71.8862
" />
<path d="M98.6537 71.3862
L99.7965 71.3862
" />
<path d="M100.4394 71.8862
L100.5823 71.9576
" />
<path d="M100.5823 71.9576
L100.8680 71.9576
" />
<path d="M100.8680 71.9576
L101.0108 71.8862
" />
<path d="M101.0108 71.8862
L101.0823 71.7433
" />
<path d="M101.0823 71.7433
L101.0823 71.6719
" />
<path d="M101.0823 71.6719
L101.0108 71.5291
" />
<path d="M101.0108 71.5291
L100.8680 71.4576
" />
<path d="M100.8680 71.4576
L100.6537 71.4576
" />
<path d="M100.6537 71.4576
L100.5108 71.3862
" />
<path d="M100.5108 71.3862
L100.4394 71.2433
" />
<path d="M100.4394 71.2433
L100.4394 71.1719
" />
<path d="M100.4394 71.1719
L100.5108 71.0291
" />
<path d="M100.5108 71.0291
L100.6537 70.9576
" />
<path d="M100.6537 70.9576
L100.8680 70.9576
" />
<path d="M100.8680 70.9576
L101.0108 71.0291
" />
<path d="M101.5108 70.9576
L102.0823 70.9576
" />
<path d="M101.7251 70.4576
L101.7251 71.7433
" />
<path d="M101.7251 71.7433
L101.7965 71.8862
" />
<path d="M101.7965 71.8862
L101.9394 71.9576
" />
<path d="M101.9394 71.9576
L102.0823 71.9576
" />
<path d="M103.1537 71.8862
L103.0108 71.9576
" />
<path d="M103.0108 71.9576
L102.7251 71.9576
" />
<path d="M102.7251 71.9576
L102.5823 71.8862
" />
<path d="M102.5823 71.8862
L102.5108 71.7433
" />
<path d="M102.5108 71.7433
L102.5108 71.1719
" />
<path d="M102.5108 71.1719
L102.5823 71.0291
" />
<path d="M102.5823 71.0291
L102.7251 70.9576
" />
<path d="M102.7251 70.9576
L103.0108 70.9576
" />
<path d="M103.0108 70.9576
L103.1537 71.0291
" />
<path d="M103.1537 71.0291
L103.2251 71.1719
" />
<path d="M103.2251 71.1719
L103.2251 71.3148
" />
<path d="M103.2251 71.3148
L102.5108 71.4576
" />
<path d="M103.8680 70.9576
L103.8680 72.4576
" />
<path d="M103.8680 71.0291
L104.0108 70.9576
" />
<path d="M104.0108 70.9576
L104.2965 70.9576
" />
<path d="M104.2965 70.9576
L104.4394 71.0291
" />
<path d="M104.4394 71.0291
L104.5108 71.1005
" />
<path d="M104.5108 71.1005
L104.5823 71.2433
" />
<path d="M104.5823 71.2433
L104.5823 71.6719
" />
<path d="M104.5823 71.6719
L104.5108 71.8148
" />
<path d="M104.5108 71.8148
L104.4394 71.8862
" />
<path d="M104.4394 71.8862
L104.2965 71.9576
" />
<path d="M104.2965 71.9576
L104.0108 71.9576
" />
<path d="M104.0108 71.9576
L103.8680 71.8862
" />
<path d="M105.0823 70.9576
L105.3680 71.9576
" />
<path d="M105.3680 71.9576
L105.6537 71.2433
" />
<path d="M105.6537 71.2433
L105.9394 71.9576
" />
<path d="M105.9394 71.9576
L106.2251 70.9576
" />
<path d="M106.7965 71.9576
L106.7965 70.9576
" />
<path d="M106.7965 70.4576
L106.7251 70.5291
" />
<path d="M106.7251 70.5291
L106.7965 70.6005
" />
<path d="M106.7965 70.6005
L106.8680 70.5291
" />
<path d="M106.8680 70.5291
L106.7965 70.4576
" />
<path d="M106.7965 70.4576
L106.7965 70.6005
" />
<path d="M107.4394 71.8862
L107.5823 71.9576
" />
<path d="M107.5823 71.9576
L107.8680 71.9576
" />
<path d="M107.8680 71.9576
L108.0108 71.8862
" />
<path d="M108.0108 71.8862
L108.0823 71.7433
" />
<path d="M108.0823 71.7433
L108.0823 71.6719
" />
<path d="M108.0823 71.6719
L108.0108 71.5291
" />
<path d="M108.0108 71.5291
L107.8680 71.4576
" />
<path d="M107.8680 71.4576
L107.6537 71.4576
" />
<path d="M107.6537 71.4576
L107.5108 71.3862
" />
<path d="M107.5108 71.3862
L107.4394 71.2433
" />
<path d="M107.4394 71.2433
L107.4394 71.1719
" />
<path d="M107.4394 71.1719
L107.5108 71.0291
" />
<path d="M107.5108 71.0291
L107.6537 70.9576
" />
<path d="M107.6537 70.9576
L107.8680 70.9576
" />
<path d="M107.8680 70.9576
L108.0108 71.0291
" />
<path d="M109.2965 71.8862
L109.1537 71.9576
" />
<path d="M109.1537 71.9576
L108.8680 71.9576
" />
<path d="M108.8680 71.9576
L108.7251 71.8862
" />
<path d="M108.7251 71.8862
L108.6537 71.7433
" />
<path d="M108.6537 71.7433
L108.6537 71.1719
" />
<path d="M108.6537 71.1719
L108.7251 71.0291
" />
<path d="M108.7251 71.0291
L108.8680 70.9576
" />
<path d="M108.8680 70.9576
L109.1537 70.9576
" />
<path d="M109.1537 70.9576
L109.2965 71.0291
" />
<path d="M109.2965 71.0291
L109.3680 71.1719
" />
<path d="M109.3680 71.1719
L109.3680 71.3148
" />
<path d="M109.3680 71.3148
L108.6537 71.4576
" />
<path d="M110.0108 71.8148
L110.0823 71.8862
" />
<path d="M110.0823 71.8862
L110.0108 71.9576
" />
<path d="M110.0108 71.9576
L109.9394 71.8862
" />
<path d="M109.9394 71.8862
L110.0108 71.8148
" />
<path d="M110.0108 71.8148
L110.0108 71.9576
" />
<path d="M110.7251 71.9576
L110.7251 70.4576
" />
<path d="M110.8680 71.3862
L111.2965 71.9576
" />
<path d="M111.2965 70.9576
L110.7251 71.5291
" />
<path d="M111.9394 71.9576
L111.9394 70.9576
" />
<path d="M111.9394 70.4576
L111.8680 70.5291
" />
<path d="M111.8680 70.5291
L111.9394 70.6005
" />
<path d="M111.9394 70.6005
L112.0108 70.5291
" />
<path d="M112.0108 70.5291
L111.9394 70.4576
" />
<path d="M111.9394 70.4576
L111.9394 70.6005
" />
<path d="M113.2965 71.8862
L113.1537 71.9576
" />
<path d="M113.1537 71.9576
L112.8680 71.9576
" />
<path d="M112.8680 71.9576
L112.7251 71.8862
" />
<path d="M112.7251 71.8862
L112.6537 71.8148
" />
<path d="M112.6537 71.8148
L112.5823 71.6719
" />
<path d="M112.5823 71.6719
L112.5823 71.2433
" />
<path d="M112.5823 71.2433
L112.6537 71.1005
" />
<path d="M112.6537 71.1005
L112.7251 71.0291
" />
<path d="M112.7251 71.0291
L112.8680 70.9576
" />
<path d="M112.8680 70.9576
L113.1537 70.9576
" />
<path d="M113.1537 70.9576
L113.2965 71.0291
" />
<path d="M114.5823 71.9576
L114.5823 71.1719
" />
<path d="M114.5823 71.1719
L114.5108 71.0291
" />
<path d="M114.5108 71.0291
L114.3680 70.9576
" />
<path d="M114.3680 70.9576
L114.0823 70.9576
" />
<path d="M114.0823 70.9576
L113.9394 71.0291
" />
<path d="M114.5823 71.8862
L114.4394 71.9576
" />
<path d="M114.4394 71.9576
L114.0823 71.9576
" />
<path d="M114.0823 71.9576
L113.9394 71.8862
" />
<path d="M113.9394 71.8862
L113.8680 71.7433
" />
<path d="M113.8680 71.7433
L113.8680 71.6005
" />
<path d="M113.8680 71.6005
L113.9394 71.4576
" />
<path d="M113.9394 71.4576
L114.0823 71.3862
" />
<path d="M114.0823 71.3862
L114.4394 71.3862
" />
<path d="M114.4394 71.3862
L114.5823 71.3148
" />
<path d="M115.9394 71.9576
L115.9394 70.4576
" />
<path d="M115.9394 71.8862
L115.7965 71.9576
" />
<path d="M115.7965 71.9576
L115.5108 71.9576
" />
<path d="M115.5108 71.9576
L115.3680 71.8862
" />
<path d="M115.3680 71.8862
L115.2965 71.8148
" />
<path d="M115.2965 71.8148
L115.2251 71.6719
" />
<path d="M115.2251 71.6719
L115.2251 71.2433
" />
<path d="M115.2251 71.2433
L115.2965 71.1005
" />
<path d="M115.2965 71.1005
L115.3680 71.0291
" />
<path d="M115.3680 71.0291
L115.5108 70.9576
" />
<path d="M115.5108 70.9576
L115.7965 70.9576
" />
<path d="M115.7965 70.9576
L115.9394 71.0291
" />
<path d="M116.2965 72.1005
L117.4394 72.1005
" />
<path d="M117.7965 70.9576
L117.7965 72.4576
" />
<path d="M117.7965 71.0291
L117.9394 70.9576
" />
<path d="M117.9394 70.9576
L118.2251 70.9576
" />
<path d="M118.2251 70.9576
L118.3680 71.0291
" />
<path d="M118.3680 71.0291
L118.4394 71.1005
" />
<path d="M118.4394 71.1005
L118.5108 71.2433
" />
<path d="M118.5108 71.2433
L118.5108 71.6719
" />
<path d="M118.5108 71.6719
L118.4394 71.8148
" />
<path d="M118.4394 71.8148
L118.3680 71.8862
" />
<path d="M118.3680 71.8862
L118.2251 71.9576
" />
<path d="M118.2251 71.9576
L117.9394 71.9576
" />
<path d="M117.9394 71.9576
L117.7965 71.8862
" />
<path d="M119.7965 71.8862
L119.6537 71.9576
" />
<path d="M119.6537 71.9576
L119.3680 71.9576
" />
<path d="M119.3680 71.9576
L119.2251 71.8862
" />
<path d="M119.2251 71.8862
L119.1537 71.8148
" />
<path d="M119.1537 71.8148
L119.0823 71.6719
" />
<path d="M119.0823 71.6719
L119.0823 71.2433
" />
<path d="M119.0823 71.2433
L119.1537 71.1005
" />
<path d="M119.1537 71.1005
L119.2251 71.0291
" />
<path d="M119.2251 71.0291
L119.3680 70.9576
" />
<path d="M119.3680 70.9576
L119.6537 70.9576
" />
<path d="M119.6537 70.9576
L119.7965 71.0291
" />
<path d="M120.4394 71.9576
L120.4394 70.4576
" />
<path d="M120.4394 71.0291
L120.5823 70.9576
" />
<path d="M120.5823 70.9576
L120.8680 70.9576
" />
<path d="M120.8680 70.9576
L121.0108 71.0291
" />
<path d="M121.0108 71.0291
L121.0823 71.1005
" />
<path d="M121.0823 71.1005
L121.1537 71.2433
" />
<path d="M121.1537 71.2433
L121.1537 71.6719
" />
<path d="M121.1537 71.6719
L121.0823 71.8148
" />
<path d="M121.0823 71.8148
L121.0108 71.8862
" />
<path d="M121.0108 71.8862
L120.8680 71.9576
" />
<path d="M120.8680 71.9576
L120.5823 71.9576
" />
<path d="M120.5823 71.9576
L120.4394 71.8862
" />
</g></g>
<g style="fill:none; 
stroke:#C872AB; stroke-width:0.1500; stroke-opacity:1; 
stroke-linecap:round; stroke-linejoin:round;">
<path d="M82.0550 67.0715
L190.0550 67.0715
" />
</g>
<g style="fill:none; 
stroke:#C872AB; stroke-width:0.1500; stroke-opacity:1; 
stroke-linecap:round; stroke-linejoin:round;">
<text x="83.0550" y="69.3215"
textLength="8.2214" font-size="2.0000" lengthAdjust="spacingAndGlyphs"
text-anchor="start" opacity="0" stroke-opacity="0">Sheet: </text>
<g class="stroked-text"><desc>Sheet: </desc>
<path d="M83.4394 69.1862
L83.6537 69.2576
" />
<path d="M83.6537 69.2576
L84.0108 69.2576
" />
<path d="M84.0108 69.2576
L84.1537 69.1862
" />
<path d="M84.1537 69.1862
L84.2251 69.1148
" />
<path d="M84.2251 69.1148
L84.2965 68.9719
" />
<path d="M84.2965 68.9719
L84.2965 68.8291
" />
<path d="M84.2965 68.8291
L84.2251 68.6862
" />
<path d="M84.2251 68.6862
L84.1537 68.6148
" />
<path d="M84.1537 68.6148
L84.0108 68.5433
" />
<path d="M84.0108 68.5433
L83.7251 68.4719
" />
<path d="M83.7251 68.4719
L83.5823 68.4005
" />
<path d="M83.5823 68.4005
L83.5108 68.3291
" />
<path d="M83.5108 68.3291
L83.4394 68.1862
" />
<path d="M83.4394 68.1862
L83.4394 68.0433
" />
<path d="M83.4394 68.0433
L83.5108 67.9005
" />
<path d="M83.5108 67.9005
L83.5823 67.8291
" />
<path d="M83.5823 67.8291
L83.7251 67.7576
" />
<path d="M83.7251 67.7576
L84.0823 67.7576
" />
<path d="M84.0823 67.7576
L84.2965 67.8291
" />
<path d="M84.9394 69.2576
L84.9394 67.7576
" />
<path d="M85.5823 69.2576
L85.5823 68.4719
" />
<path d="M85.5823 68.4719
L85.5108 68.3291
" />
<path d="M85.5108 68.3291
L85.3680 68.2576
" />
<path d="M85.3680 68.2576
L85.1537 68.2576
" />
<path d="M85.1537 68.2576
L85.0108 68.3291
" />
<path d="M85.0108 68.3291
L84.9394 68.4005
" />
<path d="M86.8680 69.1862
L86.7251 69.2576
" />
<path d="M86.7251 69.2576
L86.4394 69.2576
" />
<path d="M86.4394 69.2576
L86.2965 69.1862
" />
<path d="M86.2965 69.1862
L86.2251 69.0433
" />
<path d="M86.2251 69.0433
L86.2251 68.4719
" />
<path d="M86.2251 68.4719
L86.2965 68.3291
" />
<path d="M86.2965 68.3291
L86.4394 68.2576
" />
<path d="M86.4394 68.2576
L86.7251 68.2576
" />
<path d="M86.7251 68.2576
L86.8680 68.3291
" />
<path d="M86.8680 68.3291
L86.9394 68.4719
" />
<path d="M86.9394 68.4719
L86.9394 68.6148
" />
<path d="M86.9394 68.6148
L86.2251 68.7576
" />
<path d="M88.1537 69.1862
L88.0108 69.2576
" />
<path d="M88.0108 69.2576
L87.7251 69.2576
" />
<path d="M87.7251 69.2576
L87.5823 69.1862
" />
<path d="M87.5823 69.1862
L87.5108 69.0433
" />
<path d="M87.5108 69.0433
L87.5108 68.4719
" />
<path d="M87.5108 68.4719
L87.5823 68.3291
" />
<path d="M87.5823 68.3291
L87.7251 68.2576
" />
<path d="M87.7251 68.2576
L88.0108 68.2576
" />
<path d="M88.0108 68.2576
L88.1537 68.3291
" />
<path d="M88.1537 68.3291
L88.2251 68.4719
" />
<path d="M88.2251 68.4719
L88.2251 68.6148
" />
<path d="M88.2251 68.6148
L87.5108 68.7576
" />
<path d="M88.6537 68.2576
L89.2251 68.2576
" />
<path d="M88.8680 67.7576
L88.8680 69.0433
" />
<path d="M88.8680 69.0433
L88.9394 69.1862
" />
<path d="M88.9394 69.1862
L89.0823 69.2576
" />
<path d="M89.0823 69.2576
L89.2251 69.2576
" />
<path d="M89.7251 69.1148
L89.7965 69.1862
" />
<path d="M89.7965 69.1862
L89.7251 69.2576
" />
<path d="M89.7251 69.2576
L89.6537 69.1862
" />
<path d="M89.6537 69.1862
L89.7251 69.1148
" />
<path d="M89.7251 69.1148
L89.7251 69.2576
" />
<path d="M89.7251 68.3291
L89.7965 68.4005
" />
<path d="M89.7965 68.4005
L89.7251 68.4719
" />
<path d="M89.7251 68.4719
L89.6537 68.4005
" />
<path d="M89.6537 68.4005
L89.7251 68.3291
" />
<path d="M89.7251 68.3291
L89.7251 68.4719
" />
</g></g>
<g style="fill:none; 
stroke:#C872AB; stroke-width:0.3000; stroke-opacity:1; 
stroke-linecap:round; stroke-linejoin:round;">
<text x="83.0550" y="66.3215"
textLength="0.9000" font-size="2.0000" lengthAdjust="spacingAndGlyphs"
text-anchor="start" opacity="0" stroke-opacity="0"></text>
<g class="stroked-text"><desc></desc>
</g></g>
<g style="fill:none; 
stroke:#C872AB; stroke-width:0.1500; stroke-opacity:1; 
stroke-linecap:round; stroke-linejoin:round;">
<text x="83.0550" y="63.3215"
textLength="0.4500" font-size="2.0000" lengthAdjust="spacingAndGlyphs"
text-anchor="start" opacity="0" stroke-opacity="0"></text>
<g class="stroked-text"><desc></desc>
</g></g>
<g style="fill:none; 
stroke:#C872AB; stroke-width:0.1500; stroke-opacity:1; 
stroke-linecap:round; stroke-linejoin:round;">
<text x="83.0550" y="60.3215"
textLength="0.4500" font-size="2.0000" lengthAdjust="spacingAndGlyphs"
text-anchor="start" opacity="0" stroke-opacity="0"></text>
<g class="stroked-text"><desc></desc>
</g></g>
<g style="fill:none; 
stroke:#C872AB; stroke-width:0.1500; stroke-opacity:1; 
stroke-linecap:round; stroke-linejoin:round;">
<text x="83.0550" y="57.3215"
textLength="0.4500" font-size="2.0000" lengthAdjust="spacingAndGlyphs"
text-anchor="start" opacity="0" stroke-opacity="0"></text>
<g class="stroked-text"><desc></desc>
</g></g>
<g style="fill:none; 
stroke:#C872AB; stroke-width:0.1500; stroke-opacity:1; 
stroke-linecap:round; stroke-linejoin:round;">
<text x="83.0550" y="54.3215"
textLength="0.4500" font-size="2.0000" lengthAdjust="spacingAndGlyphs"
text-anchor="start" opacity="0" stroke-opacity="0"></text>
<g class="stroked-text"><desc></desc>
</g></g>
<g style="fill:none; 
stroke:#C872AB; stroke-width:0.1500; stroke-opacity:1; 
stroke-linecap:round; stroke-linejoin:round;">
<path d="M102.0550 77.0715
L102.0550 80.0715
" />
</g>
<g style="fill:none; 
stroke:#C872AB; stroke-width:0.1500; stroke-opacity:1; 
stroke-linecap:round; stroke-linejoin:round;">
<path d="M166.0550 77.0715
L166.0550 83.5715
" />
</g>
<g style="fill:#CE7D2C; fill-opacity:1.0000; stroke:none;">
<circle cx="101.8250" cy="86.9982" r="2.7500" /> 
</g>
<g style="fill:#CE7D2C; fill-opacity:1.0000; stroke:none;">
<circle cx="101.8250" cy="8.4982" r="2.7500" /> 
</g>
<g style="fill:#CE7D2C; fill-opacity:1.0000; stroke:none;">
<circle cx="3.3250" cy="8.4982" r="2.7500" /> 
</g>
<g style="fill:none; 
stroke:#CE7D2C; stroke-width:1.0000; stroke-opacity:1; 
stroke-linecap:round; stroke-linejoin:round;">
<path d="M80.1750 39.5682
L81.2750 39.5682
" />
<path d="M84.6050 39.5682
L85.2050 39.5682
" />
<path d="M80.1750 30.9282
L81.2750 30.9282
" />
<path d="M84.6050 30.9282
L85.2050 30.9282
" />
</g>
<g style="fill:#CE7D2C; fill-opacity:1.0000; stroke:none;">
<circle cx="3.3250" cy="86.9982" r="2.7500" /> 
</g>
<g style="fill:#CE7D2C; fill-opacity:1.0000; stroke:none;">
<circle cx="33.3100" cy="35.1482" r="0.2500" /> 
</g>
<g style="fill:#CE7D2C; fill-opacity:1.0000; stroke:none;">
<circle cx="29.6250" cy="32.2482" r="0.2500" /> 
</g>
<g style="fill:#CE7D2C; fill-opacity:1.0000; stroke:none;">
<circle cx="41.1250" cy="28.4932" r="0.2500" /> 
</g>
<g style="fill:#CE7D2C; fill-opacity:1.0000; stroke:none;">
<circle cx="22.5750" cy="33.5943" r="0.2500" /> 
</g>
<g style="fill:#CE7D2C; fill-opacity:1.0000; stroke:none;">
<circle cx="57.0950" cy="52.2482" r="0.2500" /> 
</g>
<g style="fill:#CE7D2C; fill-opacity:1.0000; stroke:none;">
<circle cx="45.5650" cy="51.7482" r="0.2500" /> 
</g>
<g style="fill:#CE7D2C; fill-opacity:1.0000; stroke:none;">
<circle cx="50.5950" cy="50.2032" r="0.2500" /> 
</g>
<g style="fill:#CE7D2C; fill-opacity:1.0000; stroke:none;">
<circle cx="48.8400" cy="30.9492" r="0.2500" /> 
</g>
<g style="fill:#CE7D2C; fill-opacity:1.0000; stroke:none;">
<circle cx="43.5550" cy="54.2482" r="0.2500" /> 
</g>
<g style="fill:#CE7D2C; fill-opacity:1.0000; stroke:none;">
<circle cx="35.5750" cy="39.2482" r="0.2500" /> 
</g>
<g style="fill:#CE7D2C; fill-opacity:1.0000; stroke:none;">
<circle cx="46.5550" cy="52.7482" r="0.2500" /> 
</g>
<g style="fill:#CE7D2C; fill-opacity:1.0000; stroke:none;">
<circle cx="34.6400" cy="37.2482" r="0.2500" /> 
</g>
<g style="fill:#CE7D2C; fill-opacity:1.0000; stroke:none;">
<circle cx="54.5500" cy="34.2482" r="0.2500" /> 
</g>
<g style="fill:#CE7D2C; fill-opacity:1.0000; stroke:none;">
<circle cx="39.0950" cy="50.2032" r="0.2500" /> 
</g>
<g style="fill:#CE7D2C; fill-opacity:1.0000; stroke:none;">
<circle cx="38.5950" cy="30.2932" r="0.2500" /> 
</g>
<g style="fill:#CE7D2C; fill-opacity:1.0000; stroke:none;">
<circle cx="52.6750" cy="50.2482" r="0.2500" /> 
</g>
<g style="fill:#CE7D2C; fill-opacity:1.0000; stroke:none;">
<circle cx="32.0350" cy="44.2482" r="0.2500" /> 
</g>
<g style="fill:#CE7D2C; fill-opacity:1.0000; stroke:none;">
<circle cx="39.0750" cy="31.2482" r="0.2500" /> 
</g>
<g style="fill:#CE7D2C; fill-opacity:1.0000; stroke:none;">
<circle cx="54.5950" cy="54.2482" r="0.2500" /> 
</g>
<g style="fill:#CE7D2C; fill-opacity:1.0000; stroke:none;">
<circle cx="51.5250" cy="51.7482" r="0.2500" /> 
</g>
<g style="fill:#CE7D2C; fill-opacity:1.0000; stroke:none;">
<circle cx="25.1750" cy="12.6783" r="0.2500" /> 
</g>
<g style="fill:#CE7D2C; fill-opacity:1.0000; stroke:none;">
<circle cx="27.7050" cy="12.6783" r="0.2500" /> 
</g>
<g style="fill:#CE7D2C; fill-opacity:1.0000; stroke:none;">
<circle cx="79.9750" cy="12.6783" r="0.2500" /> 
</g>
<g style="fill:#CE7D2C; fill-opacity:1.0000; stroke:none;">
<circle cx="78.7050" cy="12.6783" r="0.2500" /> 
</g>
<g style="fill:#CE7D2C; fill-opacity:1.0000; stroke:none;">
<circle cx="26.4450" cy="12.6783" r="0.2500" /> 
</g>
<g style="fill:#CE7D2C; fill-opacity:1.0000; stroke:none;">
<circle cx="34.2250" cy="11.1982" r="0.2250" /> 
</g>
<g style="fill:#CE7D2C; fill-opacity:1.0000; stroke:none;">
<circle cx="28.9750" cy="12.6783" r="0.2500" /> 
</g>
<g style="fill:#CE7D2C; fill-opacity:1.0000; stroke:none;">
<circle cx="22.2715" cy="27.6982" r="0.2500" /> 
</g>
<g style="fill:#CE7D2C; fill-opacity:1.0000; stroke:none;">
<circle cx="76.1750" cy="12.6783" r="0.2500" /> 
</g>
<g style="fill:#CE7D2C; fill-opacity:1.0000; stroke:none;">
<circle cx="77.4450" cy="12.6783" r="0.2500" /> 
</g>
<g style="fill:#CE7D2C; fill-opacity:1.0000; stroke:none;">
<circle cx="73.2250" cy="11.1982" r="0.2250" /> 
</g>
<g style="fill:#CE7D2C; fill-opacity:1.0000; stroke:none;">
<circle cx="20.0750" cy="16.9482" r="0.2500" /> 
</g>
<g style="fill:#CE7D2C; fill-opacity:1.0000; stroke:none;">
<circle cx="35.5850" cy="29.2482" r="0.2500" /> 
</g>
<g style="fill:#CE7D2C; fill-opacity:1.0000; stroke:none;">
<circle cx="36.5650" cy="29.2482" r="0.2500" /> 
</g>
<g style="fill:#CE7D2C; fill-opacity:1.0000; stroke:none;">
<circle cx="30.5650" cy="27.2482" r="0.2500" /> 
</g>
<g style="fill:#CE7D2C; fill-opacity:1.0000; stroke:none;">
<circle cx="30.5750" cy="27.7482" r="0.2500" /> 
</g>
<g style="fill:#CE7D2C; fill-opacity:1.0000; stroke:none;">
<circle cx="33.5650" cy="27.2482" r="0.2500" /> 
</g>
<g style="fill:#CE7D2C; fill-opacity:1.0000; stroke:none;">
<circle cx="28.8250" cy="19.7482" r="0.2250" /> 
</g>
<g style="fill:#CE7D2C; fill-opacity:1.0000; stroke:none;">
<circle cx="31.3750" cy="27.7482" r="0.2500" /> 
</g>
<g style="fill:#CE7D2C; fill-opacity:1.0000; stroke:none;">
<circle cx="38.3999" cy="27.9982" r="0.2500" /> 
</g>
<g style="fill:#CE7D2C; fill-opacity:1.0000; stroke:none;">
<circle cx="47.0750" cy="49.2482" r="0.2500" /> 
</g>
<g style="fill:#CE7D2C; fill-opacity:1.0000; stroke:none;">
<circle cx="47.5750" cy="51.7482" r="0.2500" /> 
</g>
<g style="fill:#CE7D2C; fill-opacity:1.0000; stroke:none;">
<circle cx="52.0750" cy="49.2482" r="0.2500" /> 
</g>
<g style="fill:#CE7D2C; fill-opacity:1.0000; stroke:none;">
<circle cx="52.0750" cy="52.5482" r="0.2500" /> 
</g>
<g style="fill:#CE7D2C; fill-opacity:1.0000; stroke:none;">
<circle cx="28.9750" cy="17.8182" r="0.2500" /> 
</g>
<g style="fill:#CE7D2C; fill-opacity:1.0000; stroke:none;">
<circle cx="34.2250" cy="10.2482" r="0.2250" /> 
</g>
<g style="fill:#CE7D2C; fill-opacity:1.0000; stroke:none;">
<circle cx="35.5950" cy="9.2482" r="0.2500" /> 
</g>
<g style="fill:#CE7D2C; fill-opacity:1.0000; stroke:none;">
<circle cx="31.9250" cy="9.2982" r="0.2500" /> 
</g>
<g style="fill:#CE7D2C; fill-opacity:1.0000; stroke:none;">
<circle cx="73.2250" cy="10.2482" r="0.2250" /> 
</g>
<g style="fill:#CE7D2C; fill-opacity:1.0000; stroke:none;">
<circle cx="79.9750" cy="17.8182" r="0.2500" /> 
</g>
<g style="fill:#CE7D2C; fill-opacity:1.0000; stroke:none;">
<circle cx="70.9250" cy="9.2982" r="0.2500" /> 
</g>
<g style="fill:#CE7D2C; fill-opacity:1.0000; stroke:none;">
<circle cx="68.5950" cy="9.2482" r="0.2500" /> 
</g>
<g style="fill:#CE7D2C; fill-opacity:1.0000; stroke:none;">
<circle cx="82.0750" cy="35.9982" r="0.2500" /> 
</g>
<g style="fill:#CE7D2C; fill-opacity:1.0000; stroke:none;">
<circle cx="82.0750" cy="34.9982" r="0.2500" /> 
</g>
<g style="fill:#CE7D2C; fill-opacity:1.0000; stroke:none;">
<circle cx="80.9250" cy="35.4982" r="0.2500" /> 
</g>
<g style="fill:#CE7D2C; fill-opacity:1.0000; stroke:none;">
<circle cx="80.9250" cy="34.4982" r="0.2500" /> 
<path style="fill:#CE7D2C; fill-opacity:1.0000; stroke:none;fill-rule:evenodd;"
d="M 31.3293,9.7679
31.3500,9.7846
31.4466,9.8812
31.4466,9.8812
31.5695,9.9633
31.5695,9.9633
31.7061,10.0199
31.7061,10.0199
31.7061,10.0199
31.7061,10.0199
31.8511,10.0488
31.8511,10.0488
31.9989,10.0488
32.0965,10.0293
32.1439,10.0199
32.2805,9.9633
32.4034,9.8812
32.4344,9.8502
32.5000,9.7846
32.5614,9.7511
32.5877,9.7482
33.4613,9.7482
33.5283,9.7679
33.5740,9.8207
33.5840,9.8899
33.5758,9.9197
33.5274,10.0366
33.5274,10.0366
33.4995,10.1768
33.4995,10.1768
33.4995,10.3197
33.4995,10.3197
33.4995,10.3197
33.5274,10.4599
33.5274,10.4599
33.5821,10.5919
33.5821,10.5919
33.6615,10.7107
33.6615,10.7107
33.7625,10.8118
33.7625,10.8118
33.8813,10.8912
33.8813,10.8912
33.8813,10.8912
34.0134,10.9459
34.0134,10.9459
34.0134,10.9459
34.1535,10.9737
34.1535,10.9737
34.2965,10.9737
34.3908,10.9550
34.4366,10.9459
34.5687,10.8912
34.6875,10.8118
34.7885,10.7107
34.8679,10.5919
34.9226,10.4599
34.9505,10.3197
34.9505,10.1768
34.9505,10.1768
34.9226,10.0366
34.9226,10.0366
34.9226,10.0366
34.9069,9.9987
34.8788,9.9308
34.8713,9.8613
34.9026,9.7988
34.9627,9.7632
35.0325,9.7657
35.0810,9.7956
35.1166,9.8312
35.1166,9.8312
35.2395,9.9133
35.2395,9.9133
35.3602,9.9633
35.3761,9.9699
35.3761,9.9699
35.3761,9.9699
35.5211,9.9987
35.5211,9.9987
35.6689,9.9987
35.7665,9.9793
35.8139,9.9699
35.9505,9.9133
36.0734,9.8312
36.1200,9.7846
36.1814,9.7511
36.2077,9.7482
67.9823,9.7482
68.0493,9.7679
68.0700,9.7846
68.1166,9.8312
68.1166,9.8312
68.2395,9.9133
68.2395,9.9133
68.3602,9.9633
68.3761,9.9699
68.3761,9.9699
68.3761,9.9699
68.5211,9.9987
68.5211,9.9987
68.6689,9.9987
68.7665,9.9793
68.8139,9.9699
68.9505,9.9133
69.0734,9.8312
69.1200,9.7846
69.1814,9.7511
69.2077,9.7482
70.2623,9.7482
70.3293,9.7679
70.3500,9.7846
70.4466,9.8812
70.4466,9.8812
70.5695,9.9633
70.5695,9.9633
70.7061,10.0199
70.7061,10.0199
70.7061,10.0199
70.7061,10.0199
70.8511,10.0488
70.8511,10.0488
70.9989,10.0488
71.0965,10.0293
71.1439,10.0199
71.2805,9.9633
71.4034,9.8812
71.4344,9.8502
71.5000,9.7846
71.5614,9.7511
71.5877,9.7482
72.4613,9.7482
72.5283,9.7679
72.5740,9.8207
72.5840,9.8899
72.5758,9.9197
72.5274,10.0366
72.5274,10.0366
72.4995,10.1768
72.4995,10.1768
72.4995,10.3197
72.4995,10.3197
72.4995,10.3197
72.5274,10.4599
72.5274,10.4599
72.5821,10.5919
72.5821,10.5919
72.6615,10.7107
72.6615,10.7107
72.7625,10.8118
72.7625,10.8118
72.8813,10.8912
72.8813,10.8912
72.8813,10.8912
73.0134,10.9459
73.0134,10.9459
73.0134,10.9459
73.1535,10.9737
73.1535,10.9737
73.2965,10.9737
73.3908,10.9550
73.4366,10.9459
73.5687,10.8912
73.6875,10.8118
73.7885,10.7107
73.8679,10.5919
73.9226,10.4599
73.9505,10.3197
73.9505,10.1768
73.9505,10.1768
73.9226,10.0366
73.9226,10.0366
73.9226,10.0366
73.8742,9.9197
73.8667,9.8502
73.8980,9.7878
73.9581,9.7521
73.9887,9.7482
81.9510,9.7482
82.0180,9.7679
82.0638,9.8207
82.0750,9.8722
82.0750,29.1242
82.0553,29.1913
82.0025,29.2370
81.9510,29.2482
41.7307,29.2482
41.6637,29.2286
41.6179,29.1758
41.6080,29.1066
41.6370,29.0430
41.6430,29.0366
41.7079,28.9717
41.7080,28.9717
41.7901,28.8487
41.8467,28.7122
41.8727,28.5812
41.8755,28.5672
41.8755,28.4193
41.8467,28.2743
41.8467,28.2743
41.8467,28.2743
41.8467,28.2743
41.7901,28.1378
41.7901,28.1377
41.7080,28.0148
41.7079,28.0148
41.6034,27.9103
41.6034,27.9103
41.4805,27.8282
41.4805,27.8282
41.3439,27.7716
41.3439,27.7716
41.1989,27.7427
41.1989,27.7427
41.0511,27.7427
41.0511,27.7427
40.9061,27.7716
40.9061,27.7716
40.7695,27.8282
40.7695,27.8282
40.6466,27.9103
40.6466,27.9103
40.5421,28.0148
40.5420,28.0148
40.4599,28.1377
40.4599,28.1378
40.4033,28.2743
40.4033,28.2743
40.3745,28.4193
40.3745,28.4193
40.3745,28.5672
40.3745,28.5672
40.3745,28.5672
40.4033,28.7122
40.4033,28.7122
40.4599,28.8487
40.4599,28.8488
40.5420,28.9717
40.5421,28.9717
40.6070,29.0366
40.6404,29.0979
40.6355,29.1676
40.5936,29.2235
40.5281,29.2479
40.5193,29.2482
37.4320,29.2482
37.3649,29.2286
37.3192,29.1758
37.3103,29.1484
37.3003,29.0979
37.2867,29.0293
37.2508,28.9427
37.2301,28.8928
37.2301,28.8927
37.1480,28.7698
37.1479,28.7698
37.0434,28.6653
37.0434,28.6653
36.9205,28.5832
36.9205,28.5832
36.7839,28.5266
36.7839,28.5266
36.6389,28.4977
36.6389,28.4977
36.4911,28.4977
36.4911,28.4977
36.3461,28.5266
36.3461,28.5266
36.2095,28.5832
36.2095,28.5832
36.1439,28.6270
36.0772,28.6479
36.0098,28.6294
36.0061,28.6270
35.9405,28.5832
35.9405,28.5832
35.8039,28.5266
35.8039,28.5266
35.6589,28.4977
35.6589,28.4977
35.5111,28.4977
35.5111,28.4977
35.3661,28.5266
35.3661,28.5266
35.2295,28.5832
35.2295,28.5832
35.1066,28.6653
35.1066,28.6653
35.0021,28.7698
35.0020,28.7698
34.9199,28.8927
34.9199,28.8928
34.8633,29.0293
34.8633,29.0293
34.8396,29.1484
34.8073,29.2104
34.7465,29.2449
34.7180,29.2482
26.0695,29.2482
26.0025,29.2286
25.9567,29.1758
25.9479,29.1484
25.9418,29.1180
25.9342,29.0793
25.9134,29.0293
25.8776,28.9428
25.8776,28.9427
25.7955,28.8198
25.7954,28.8198
25.6909,28.7153
25.6909,28.7153
25.5680,28.6332
25.5680,28.6332
25.4314,28.5766
25.4314,28.5766
25.2864,28.5477
25.2864,28.5477
25.1386,28.5477
25.1386,28.5477
24.9936,28.5766
24.9936,28.5766
24.8570,28.6332
24.8570,28.6332
24.7341,28.7153
24.7341,28.7153
24.6296,28.8198
24.6295,28.8198
24.5474,28.9427
24.5474,28.9428
24.4908,29.0793
24.4908,29.0793
24.4771,29.1484
24.4447,29.2104
24.3840,29.2449
24.3555,29.2482
18.1990,29.2482
18.1320,29.2286
18.0862,29.1758
18.0750,29.1242
18.0750,27.3222
29.8145,27.3222
29.8433,27.4672
29.8433,27.4672
29.8441,27.4689
29.8442,27.4699
29.8451,27.4730
29.8445,27.4732
29.8515,27.5384
29.8511,27.5405
29.8245,27.6743
29.8245,27.6743
29.8245,27.8222
29.8245,27.8222
29.8245,27.8222
29.8533,27.9672
29.8533,27.9672
29.9099,28.1037
29.9099,28.1038
29.9920,28.2267
29.9921,28.2267
30.0966,28.3312
30.0966,28.3312
30.2195,28.4133
30.2195,28.4133
30.3561,28.4699
30.3561,28.4699
30.3561,28.4699
30.3561,28.4699
30.5011,28.4987
30.5011,28.4987
30.6489,28.4987
30.7599,28.4767
30.7939,28.4699
30.9275,28.4146
30.9970,28.4071
31.0225,28.4146
31.1561,28.4699
31.1561,28.4699
31.1561,28.4699
31.3011,28.4987
31.3011,28.4987
31.4489,28.4987
31.5599,28.4767
31.5939,28.4699
31.7305,28.4133
31.8534,28.3312
31.9580,28.2267
32.0401,28.1037
32.0532,28.0722
37.6494,28.0722
37.6783,28.2172
37.6783,28.2172
37.7348,28.3537
37.7349,28.3538
37.8170,28.4767
37.8170,28.4767
37.9215,28.5812
37.9215,28.5812
38.0444,28.6633
38.0444,28.6633
38.1810,28.7199
38.1810,28.7199
38.1810,28.7199
38.1810,28.7199
38.3260,28.7487
38.3260,28.7487
38.4739,28.7487
38.5714,28.7293
38.6188,28.7199
38.7507,28.6653
38.7554,28.6633
38.7554,28.6633
38.7554,28.6633
38.8784,28.5812
38.9829,28.4767
39.0650,28.3537
39.1216,28.2172
39.1310,28.1697
39.1504,28.0722
39.1504,27.9243
39.1216,27.7793
39.1216,27.7793
39.1216,27.7793
39.0781,27.6743
39.0650,27.6428
39.0650,27.6427
38.9829,27.5198
38.9829,27.5198
38.8784,27.4153
38.8784,27.4153
38.7554,27.3332
38.7554,27.3332
38.6189,27.2766
38.6188,27.2766
38.4739,27.2477
38.4739,27.2477
38.3260,27.2477
38.3260,27.2477
38.1810,27.2766
38.1810,27.2766
38.0444,27.3332
38.0444,27.3332
37.9215,27.4153
37.9215,27.4153
37.8170,27.5198
37.8170,27.5198
37.7349,27.6427
37.7348,27.6428
37.6783,27.7793
37.6783,27.7793
37.6494,27.9243
37.6494,27.9243
37.6494,28.0722
37.6494,28.0722
37.6494,28.0722
32.0532,28.0722
32.0967,27.9672
32.1080,27.9103
32.1255,27.8222
32.1255,27.6743
32.0967,27.5293
32.0967,27.5293
32.0967,27.5293
32.0720,27.4699
32.0401,27.3928
32.0401,27.3927
31.9929,27.3222
32.8145,27.3222
32.8433,27.4672
32.8433,27.4672
32.8999,27.6037
32.8999,27.6038
32.9820,27.7267
32.9821,27.7267
33.0866,27.8312
33.0866,27.8312
33.2095,27.9133
33.2095,27.9133
33.3461,27.9699
33.3461,27.9699
33.3461,27.9699
33.3461,27.9699
33.4911,27.9987
33.4911,27.9987
33.6389,27.9987
33.7365,27.9793
33.7839,27.9699
33.9205,27.9133
34.0434,27.8312
34.0434,27.8312
34.0441,27.8306
34.1479,27.7267
34.1480,27.7267
34.2301,27.6037
34.2867,27.4672
34.3015,27.3928
34.3155,27.3222
34.3155,27.1743
34.2867,27.0293
34.2867,27.0293
34.2867,27.0293
34.2736,26.9977
34.2301,26.8928
34.2301,26.8927
34.1480,26.7698
34.1479,26.7698
34.0434,26.6653
34.0434,26.6653
33.9205,26.5832
33.9205,26.5832
33.7839,26.5266
33.7839,26.5266
33.6389,26.4977
33.6389,26.4977
33.4911,26.4977
33.4911,26.4977
33.3461,26.5266
33.3461,26.5266
33.2095,26.5832
33.2095,26.5832
33.0866,26.6653
33.0866,26.6653
32.9821,26.7698
32.9820,26.7698
32.8999,26.8927
32.8999,26.8928
32.8433,27.0293
32.8433,27.0293
32.8145,27.1743
32.8145,27.1743
32.8145,27.3222
32.8145,27.3222
32.8145,27.3222
31.9929,27.3222
31.9580,27.2698
31.9579,27.2698
31.8534,27.1653
31.8534,27.1653
31.7305,27.0832
31.7305,27.0832
31.5939,27.0266
31.5939,27.0266
31.4489,26.9977
31.4489,26.9977
31.3564,26.9977
31.2894,26.9781
31.2436,26.9253
31.2419,26.9212
31.2301,26.8928
31.1480,26.7698
31.1479,26.7698
31.0434,26.6653
31.0434,26.6653
30.9205,26.5832
30.9205,26.5832
30.7839,26.5266
30.7839,26.5266
30.6389,26.4977
30.6389,26.4977
30.4911,26.4977
30.4911,26.4977
30.3461,26.5266
30.3461,26.5266
30.2095,26.5832
30.2095,26.5832
30.0866,26.6653
30.0866,26.6653
29.9821,26.7698
29.9820,26.7698
29.8999,26.8927
29.8999,26.8928
29.8433,27.0293
29.8433,27.0293
29.8145,27.1743
29.8145,27.1743
29.8145,27.3222
29.8145,27.3222
29.8145,27.3222
18.0750,27.3222
18.0750,19.8197
28.0995,19.8197
28.1274,19.9599
28.1274,19.9599
28.1821,20.0919
28.1821,20.0919
28.2615,20.2107
28.2615,20.2107
28.3625,20.3118
28.3625,20.3118
28.4813,20.3912
28.4813,20.3912
28.4813,20.3912
28.6134,20.4459
28.6134,20.4459
28.6134,20.4459
28.7535,20.4737
28.7535,20.4737
28.8965,20.4737
28.9908,20.4550
29.0366,20.4459
29.1687,20.3912
29.2875,20.3118
29.3885,20.2107
29.4679,20.0919
29.5226,19.9599
29.5505,19.8197
29.5505,19.6768
29.5505,19.6768
29.5226,19.5366
29.5226,19.5366
29.5226,19.5366
29.4679,19.4046
29.4679,19.4046
29.4679,19.4046
29.3885,19.2858
29.3885,19.2858
29.2875,19.1847
29.2875,19.1847
29.1687,19.1053
29.1686,19.1053
29.0366,19.0506
29.0366,19.0506
28.8965,19.0227
28.8965,19.0227
28.7535,19.0227
28.7535,19.0227
28.6134,19.0506
28.6134,19.0506
28.4813,19.1053
28.4813,19.1053
28.3625,19.1847
28.3625,19.1847
28.2615,19.2858
28.2615,19.2858
28.1821,19.4046
28.1821,19.4046
28.1274,19.5366
28.1274,19.5366
28.0995,19.6768
28.0995,19.6768
28.0995,19.8197
28.0995,19.8197
28.0995,19.8197
18.0750,19.8197
18.0750,17.8922
28.2245,17.8922
28.2533,18.0372
28.2533,18.0372
28.3099,18.1737
28.3099,18.1738
28.3920,18.2967
28.3921,18.2967
28.4966,18.4012
28.4966,18.4012
28.6195,18.4833
28.6195,18.4833
28.7561,18.5399
28.7561,18.5399
28.7561,18.5399
28.7561,18.5399
28.9011,18.5687
28.9011,18.5687
29.0489,18.5687
29.1465,18.5493
29.1939,18.5399
29.3305,18.4833
29.4534,18.4012
29.5580,18.2967
29.6401,18.1737
29.6967,18.0372
29.7255,17.8922
79.2245,17.8922
79.2533,18.0372
79.2533,18.0372
79.3099,18.1737
79.3099,18.1738
79.3920,18.2967
79.3921,18.2967
79.4966,18.4012
79.4966,18.4012
79.6195,18.4833
79.6195,18.4833
79.7561,18.5399
79.7561,18.5399
79.7561,18.5399
79.7561,18.5399
79.9011,18.5687
79.9011,18.5687
80.0489,18.5687
80.1465,18.5493
80.1939,18.5399
80.3305,18.4833
80.4534,18.4012
80.5580,18.2967
80.6401,18.1737
80.6967,18.0372
80.7255,17.8922
80.7255,17.7443
80.7255,17.7443
80.6967,17.5993
80.6967,17.5993
80.6967,17.5993
80.6684,17.5312
80.6401,17.4628
80.6401,17.4627
80.5580,17.3398
80.5579,17.3398
80.4534,17.2353
80.4534,17.2353
80.3305,17.1532
80.3305,17.1532
80.1939,17.0966
80.1939,17.0966
80.0489,17.0678
80.0489,17.0678
79.9011,17.0678
79.9011,17.0678
79.7561,17.0966
79.7561,17.0966
79.6195,17.1532
79.6195,17.1532
79.4966,17.2353
79.4966,17.2353
79.3921,17.3398
79.3920,17.3398
79.3099,17.4627
79.3099,17.4628
79.2533,17.5993
79.2533,17.5993
79.2245,17.7443
79.2245,17.7443
79.2245,17.8922
79.2245,17.8922
79.2245,17.8922
29.7255,17.8922
29.7255,17.8922
29.7255,17.7443
29.7255,17.7443
29.6967,17.5993
29.6967,17.5993
29.6967,17.5993
29.6684,17.5312
29.6401,17.4628
29.6401,17.4627
29.5580,17.3398
29.5579,17.3398
29.4534,17.2353
29.4534,17.2353
29.3305,17.1532
29.3305,17.1532
29.1939,17.0966
29.1939,17.0966
29.0489,17.0678
29.0489,17.0678
28.9011,17.0678
28.9011,17.0678
28.7561,17.0966
28.7561,17.0966
28.6195,17.1532
28.6195,17.1532
28.4966,17.2353
28.4966,17.2353
28.3921,17.3398
28.3920,17.3398
28.3099,17.4627
28.3099,17.4628
28.2533,17.5993
28.2533,17.5993
28.2245,17.7443
28.2245,17.7443
28.2245,17.8922
28.2245,17.8922
28.2245,17.8922
18.0750,17.8922
18.0750,17.0222
19.3245,17.0222
19.3533,17.1672
19.3533,17.1672
19.4099,17.3037
19.4099,17.3038
19.4920,17.4267
19.4921,17.4267
19.5966,17.5312
19.5966,17.5312
19.7195,17.6133
19.7195,17.6133
19.8561,17.6699
19.8561,17.6699
19.8561,17.6699
19.8561,17.6699
20.0011,17.6988
20.0011,17.6988
20.1489,17.6988
20.2465,17.6793
20.2939,17.6699
20.3421,17.6500
20.4055,17.6237
20.4305,17.6133
20.4305,17.6133
20.4305,17.6133
20.5534,17.5312
20.6580,17.4267
20.7401,17.3037
20.7967,17.1672
20.8255,17.0222
20.8255,16.8743
20.8255,16.8743
20.7967,16.7293
20.7967,16.7293
20.7967,16.7293
20.7967,16.7293
20.7401,16.5928
20.7401,16.5927
20.6580,16.4698
20.6579,16.4698
20.5534,16.3653
20.5534,16.3653
20.4305,16.2832
20.4305,16.2832
20.2939,16.2266
20.2939,16.2266
20.1489,16.1977
20.1489,16.1977
20.0011,16.1977
20.0011,16.1977
19.8561,16.2266
19.8561,16.2266
19.7195,16.2832
19.7195,16.2832
19.5966,16.3653
19.5966,16.3653
19.4921,16.4698
19.4920,16.4698
19.4099,16.5927
19.4099,16.5928
19.3533,16.7293
19.3533,16.7293
19.3245,16.8743
19.3245,16.8743
19.3245,17.0222
19.3245,17.0222
19.3245,17.0222
18.0750,17.0222
18.0750,9.8722
18.0947,9.8052
18.1475,9.7595
18.1990,9.7482
31.2623,9.7482
Z" /> 
<path style="fill:#CE7D2C; fill-opacity:1.0000; stroke:none;fill-rule:evenodd;"
d="M 31.3293,9.7679
31.3500,9.7846
31.4466,9.8812
31.4466,9.8812
31.5695,9.9633
31.5695,9.9633
31.7061,10.0199
31.7061,10.0199
31.7061,10.0199
31.7061,10.0199
31.8511,10.0488
31.8511,10.0488
31.9989,10.0488
32.0965,10.0293
32.1439,10.0199
32.2805,9.9633
32.4034,9.8812
32.4344,9.8502
32.5000,9.7846
32.5614,9.7511
32.5877,9.7482
33.4613,9.7482
33.5283,9.7679
33.5740,9.8207
33.5840,9.8899
33.5758,9.9197
33.5274,10.0366
33.5274,10.0366
33.4995,10.1768
33.4995,10.1768
33.4995,10.3197
33.4995,10.3197
33.4995,10.3197
33.5274,10.4599
33.5274,10.4599
33.5821,10.5919
33.5821,10.5919
33.6615,10.7107
33.6615,10.7107
33.7625,10.8118
33.7625,10.8118
33.8813,10.8912
33.8813,10.8912
33.8813,10.8912
34.0134,10.9459
34.0134,10.9459
34.0134,10.9459
34.1535,10.9737
34.1535,10.9737
34.2965,10.9737
34.3908,10.9550
34.4366,10.9459
34.5687,10.8912
34.6875,10.8118
34.7885,10.7107
34.8679,10.5919
34.9226,10.4599
34.9505,10.3197
34.9505,10.1768
34.9505,10.1768
34.9226,10.0366
34.9226,10.0366
34.9226,10.0366
34.9069,9.9987
34.8788,9.9308
34.8713,9.8613
34.9026,9.7988
34.9627,9.7632
35.0325,9.7657
35.0810,9.7956
35.1166,9.8312
35.1166,9.8312
35.2395,9.9133
35.2395,9.9133
35.3602,9.9633
35.3761,9.9699
35.3761,9.9699
35.3761,9.9699
35.5211,9.9987
35.5211,9.9987
35.6689,9.9987
35.7665,9.9793
35.8139,9.9699
35.9505,9.9133
36.0734,9.8312
36.1200,9.7846
36.1814,9.7511
36.2077,9.7482
67.9823,9.7482
68.0493,9.7679
68.0700,9.7846
68.1166,9.8312
68.1166,9.8312
68.2395,9.9133
68.2395,9.9133
68.3602,9.9633
68.3761,9.9699
68.3761,9.9699
68.3761,9.9699
68.5211,9.9987
68.5211,9.9987
68.6689,9.9987
68.7665,9.9793
68.8139,9.9699
68.9505,9.9133
69.0734,9.8312
69.1200,9.7846
69.1814,9.7511
69.2077,9.7482
70.2623,9.7482
70.3293,9.7679
70.3500,9.7846
70.4466,9.8812
70.4466,9.8812
70.5695,9.9633
70.5695,9.9633
70.7061,10.0199
70.7061,10.0199
70.7061,10.0199
70.7061,10.0199
70.8511,10.0488
70.8511,10.0488
70.9989,10.0488
71.0965,10.0293
71.1439,10.0199
71.2805,9.9633
71.4034,9.8812
71.4344,9.8502
71.5000,9.7846
71.5614,9.7511
71.5877,9.7482
72.4613,9.7482
72.5283,9.7679
72.5740,9.8207
72.5840,9.8899
72.5758,9.9197
72.5274,10.0366
72.5274,10.0366
72.4995,10.1768
72.4995,10.1768
72.4995,10.3197
72.4995,10.3197
72.4995,10.3197
72.5274,10.4599
72.5274,10.4599
72.5821,10.5919
72.5821,10.5919
72.6615,10.7107
72.6615,10.7107
72.7625,10.8118
72.7625,10.8118
72.8813,10.8912
72.8813,10.8912
72.8813,10.8912
73.0134,10.9459
73.0134,10.9459
73.0134,10.9459
73.1535,10.9737
73.1535,10.9737
73.2965,10.9737
73.3908,10.9550
73.4366,10.9459
73.5687,10.8912
73.6875,10.8118
73.7885,10.7107
73.8679,10.5919
73.9226,10.4599
73.9505,10.3197
73.9505,10.1768
73.9505,10.1768
73.9226,10.0366
73.9226,10.0366
73.9226,10.0366
73.8742,9.9197
73.8667,9.8502
73.8980,9.7878
73.9581,9.7521
73.9887,9.7482
81.9510,9.7482
82.0180,9.7679
82.0638,9.8207
82.0750,9.8722
82.0750,29.1242
82.0553,29.1913
82.0025,29.2370
81.9510,29.2482
41.7307,29.2482
41.6637,29.2286
41.6179,29.1758
41.6080,29.1066
41.6370,29.0430
41.6430,29.0366
41.7079,28.9717
41.7080,28.9717
41.7901,28.8487
41.8467,28.7122
41.8727,28.5812
41.8755,28.5672
41.8755,28.4193
41.8467,28.2743
41.8467,28.2743
41.8467,28.2743
41.8467,28.2743
41.7901,28.1378
41.7901,28.1377
41.7080,28.0148
41.7079,28.0148
41.6034,27.9103
41.6034,27.9103
41.4805,27.8282
41.4805,27.8282
41.3439,27.7716
41.3439,27.7716
41.1989,27.7427
41.1989,27.7427
41.0511,27.7427
41.0511,27.7427
40.9061,27.7716
40.9061,27.7716
40.7695,27.8282
40.7695,27.8282
40.6466,27.9103
40.6466,27.9103
40.5421,28.0148
40.5420,28.0148
40.4599,28.1377
40.4599,28.1378
40.4033,28.2743
40.4033,28.2743
40.3745,28.4193
40.3745,28.4193
40.3745,28.5672
40.3745,28.5672
40.3745,28.5672
40.4033,28.7122
40.4033,28.7122
40.4599,28.8487
40.4599,28.8488
40.5420,28.9717
40.5421,28.9717
40.6070,29.0366
40.6404,29.0979
40.6355,29.1676
40.5936,29.2235
40.5281,29.2479
40.5193,29.2482
37.4320,29.2482
37.3649,29.2286
37.3192,29.1758
37.3103,29.1484
37.3003,29.0979
37.2867,29.0293
37.2508,28.9427
37.2301,28.8928
37.2301,28.8927
37.1480,28.7698
37.1479,28.7698
37.0434,28.6653
37.0434,28.6653
36.9205,28.5832
36.9205,28.5832
36.7839,28.5266
36.7839,28.5266
36.6389,28.4977
36.6389,28.4977
36.4911,28.4977
36.4911,28.4977
36.3461,28.5266
36.3461,28.5266
36.2095,28.5832
36.2095,28.5832
36.1439,28.6270
36.0772,28.6479
36.0098,28.6294
36.0061,28.6270
35.9405,28.5832
35.9405,28.5832
35.8039,28.5266
35.8039,28.5266
35.6589,28.4977
35.6589,28.4977
35.5111,28.4977
35.5111,28.4977
35.3661,28.5266
35.3661,28.5266
35.2295,28.5832
35.2295,28.5832
35.1066,28.6653
35.1066,28.6653
35.0021,28.7698
35.0020,28.7698
34.9199,28.8927
34.9199,28.8928
34.8633,29.0293
34.8633,29.0293
34.8396,29.1484
34.8073,29.2104
34.7465,29.2449
34.7180,29.2482
26.0695,29.2482
26.0025,29.2286
25.9567,29.1758
25.9479,29.1484
25.9418,29.1180
25.9342,29.0793
25.9134,29.0293
25.8776,28.9428
25.8776,28.9427
25.7955,28.8198
25.7954,28.8198
25.6909,28.7153
25.6909,28.7153
25.5680,28.6332
25.5680,28.6332
25.4314,28.5766
25.4314,28.5766
25.2864,28.5477
25.2864,28.5477
25.1386,28.5477
25.1386,28.5477
24.9936,28.5766
24.9936,28.5766
24.8570,28.6332
24.8570,28.6332
24.7341,28.7153
24.7341,28.7153
24.6296,28.8198
24.6295,28.8198
24.5474,28.9427
24.5474,28.9428
24.4908,29.0793
24.4908,29.0793
24.4771,29.1484
24.4447,29.2104
24.3840,29.2449
24.3555,29.2482
18.1990,29.2482
18.1320,29.2286
18.0862,29.1758
18.0750,29.1242
18.0750,27.3222
29.8145,27.3222
29.8433,27.4672
29.8433,27.4672
29.8441,27.4689
29.8442,27.4699
29.8451,27.4730
29.8445,27.4732
29.8515,27.5384
29.8511,27.5405
29.8245,27.6743
29.8245,27.6743
29.8245,27.8222
29.8245,27.8222
29.8245,27.8222
29.8533,27.9672
29.8533,27.9672
29.9099,28.1037
29.9099,28.1038
29.9920,28.2267
29.9921,28.2267
30.0966,28.3312
30.0966,28.3312
30.2195,28.4133
30.2195,28.4133
30.3561,28.4699
30.3561,28.4699
30.3561,28.4699
30.3561,28.4699
30.5011,28.4987
30.5011,28.4987
30.6489,28.4987
30.7599,28.4767
30.7939,28.4699
30.9275,28.4146
30.9970,28.4071
31.0225,28.4146
31.1561,28.4699
31.1561,28.4699
31.1561,28.4699
31.3011,28.4987
31.3011,28.4987
31.4489,28.4987
31.5599,28.4767
31.5939,28.4699
31.7305,28.4133
31.8534,28.3312
31.9580,28.2267
32.0401,28.1037
32.0532,28.0722
37.6494,28.0722
37.6783,28.2172
37.6783,28.2172
37.7348,28.3537
37.7349,28.3538
37.8170,28.4767
37.8170,28.4767
37.9215,28.5812
37.9215,28.5812
38.0444,28.6633
38.0444,28.6633
38.1810,28.7199
38.1810,28.7199
38.1810,28.7199
38.1810,28.7199
38.3260,28.7487
38.3260,28.7487
38.4739,28.7487
38.5714,28.7293
38.6188,28.7199
38.7507,28.6653
38.7554,28.6633
38.7554,28.6633
38.7554,28.6633
38.8784,28.5812
38.9829,28.4767
39.0650,28.3537
39.1216,28.2172
39.1310,28.1697
39.1504,28.0722
39.1504,27.9243
39.1216,27.7793
39.1216,27.7793
39.1216,27.7793
39.0781,27.6743
39.0650,27.6428
39.0650,27.6427
38.9829,27.5198
38.9829,27.5198
38.8784,27.4153
38.8784,27.4153
38.7554,27.3332
38.7554,27.3332
38.6189,27.2766
38.6188,27.2766
38.4739,27.2477
38.4739,27.2477
38.3260,27.2477
38.3260,27.2477
38.1810,27.2766
38.1810,27.2766
38.0444,27.3332
38.0444,27.3332
37.9215,27.4153
37.9215,27.4153
37.8170,27.5198
37.8170,27.5198
37.7349,27.6427
37.7348,27.6428
37.6783,27.7793
37.6783,27.7793
37.6494,27.9243
37.6494,27.9243
37.6494,28.0722
37.6494,28.0722
37.6494,28.0722
32.0532,28.0722
32.0967,27.9672
32.1080,27.9103
32.1255,27.8222
32.1255,27.6743
32.0967,27.5293
32.0967,27.5293
32.0967,27.5293
32.0720,27.4699
32.0401,27.3928
32.0401,27.3927
31.9929,27.3222
32.8145,27.3222
32.8433,27.4672
32.8433,27.4672
32.8999,27.6037
32.8999,27.6038
32.9820,27.7267
32.9821,27.7267
33.0866,27.8312
33.0866,27.8312
33.2095,27.9133
33.2095,27.9133
33.3461,27.9699
33.3461,27.9699
33.3461,27.9699
33.3461,27.9699
33.4911,27.9987
33.4911,27.9987
33.6389,27.9987
33.7365,27.9793
33.7839,27.9699
33.9205,27.9133
34.0434,27.8312
34.0434,27.8312
34.0441,27.8306
34.1479,27.7267
34.1480,27.7267
34.2301,27.6037
34.2867,27.4672
34.3015,27.3928
34.3155,27.3222
34.3155,27.1743
34.2867,27.0293
34.2867,27.0293
34.2867,27.0293
34.2736,26.9977
34.2301,26.8928
34.2301,26.8927
34.1480,26.7698
34.1479,26.7698
34.0434,26.6653
34.0434,26.6653
33.9205,26.5832
33.9205,26.5832
33.7839,26.5266
33.7839,26.5266
33.6389,26.4977
33.6389,26.4977
33.4911,26.4977
33.4911,26.4977
33.3461,26.5266
33.3461,26.5266
33.2095,26.5832
33.2095,26.5832
33.0866,26.6653
33.0866,26.6653
32.9821,26.7698
32.9820,26.7698
32.8999,26.8927
32.8999,26.8928
32.8433,27.0293
32.8433,27.0293
32.8145,27.1743
32.8145,27.1743
32.8145,27.3222
32.8145,27.3222
32.8145,27.3222
31.9929,27.3222
31.9580,27.2698
31.9579,27.2698
31.8534,27.1653
31.8534,27.1653
31.7305,27.0832
31.7305,27.0832
31.5939,27.0266
31.5939,27.0266
31.4489,26.9977
31.4489,26.9977
31.3564,26.9977
31.2894,26.9781
31.2436,26.9253
31.2419,26.9212
31.2301,26.8928
31.1480,26.7698
31.1479,26.7698
31.0434,26.6653
31.0434,26.6653
30.9205,26.5832
30.9205,26.5832
30.7839,26.5266
30.7839,26.5266
30.6389,26.4977
30.6389,26.4977
30.4911,26.4977
30.4911,26.4977
30.3461,26.5266
30.3461,26.5266
30.2095,26.5832
30.2095,26.5832
30.0866,26.6653
30.0866,26.6653
29.9821,26.7698
29.9820,26.7698
29.8999,26.8927
29.8999,26.8928
29.8433,27.0293
29.8433,27.0293
29.8145,27.1743
29.8145,27.1743
29.8145,27.3222
29.8145,27.3222
29.8145,27.3222
18.0750,27.3222
18.0750,19.8197
28.0995,19.8197
28.1274,19.9599
28.1274,19.9599
28.1821,20.0919
28.1821,20.0919
28.2615,20.2107
28.2615,20.2107
28.3625,20.3118
28.3625,20.3118
28.4813,20.3912
28.4813,20.3912
28.4813,20.3912
28.6134,20.4459
28.6134,20.4459
28.6134,20.4459
28.7535,20.4737
28.7535,20.4737
28.8965,20.4737
28.9908,20.4550
29.0366,20.4459
29.1687,20.3912
29.2875,20.3118
29.3885,20.2107
29.4679,20.0919
29.5226,19.9599
29.5505,19.8197
29.5505,19.6768
29.5505,19.6768
29.5226,19.5366
29.5226,19.5366
29.5226,19.5366
29.4679,19.4046
29.4679,19.4046
29.4679,19.4046
29.3885,19.2858
29.3885,19.2858
29.2875,19.1847
29.2875,19.1847
29.1687,19.1053
29.1686,19.1053
29.0366,19.0506
29.0366,19.0506
28.8965,19.0227
28.8965,19.0227
28.7535,19.0227
28.7535,19.0227
28.6134,19.0506
28.6134,19.0506
28.4813,19.1053
28.4813,19.1053
28.3625,19.1847
28.3625,19.1847
28.2615,19.2858
28.2615,19.2858
28.1821,19.4046
28.1821,19.4046
28.1274,19.5366
28.1274,19.5366
28.0995,19.6768
28.0995,19.6768
28.0995,19.8197
28.0995,19.8197
28.0995,19.8197
18.0750,19.8197
18.0750,17.8922
28.2245,17.8922
28.2533,18.0372
28.2533,18.0372
28.3099,18.1737
28.3099,18.1738
28.3920,18.2967
28.3921,18.2967
28.4966,18.4012
28.4966,18.4012
28.6195,18.4833
28.6195,18.4833
28.7561,18.5399
28.7561,18.5399
28.7561,18.5399
28.7561,18.5399
28.9011,18.5687
28.9011,18.5687
29.0489,18.5687
29.1465,18.5493
29.1939,18.5399
29.3305,18.4833
29.4534,18.4012
29.5580,18.2967
29.6401,18.1737
29.6967,18.0372
29.7255,17.8922
79.2245,17.8922
79.2533,18.0372
79.2533,18.0372
79.3099,18.1737
79.3099,18.1738
79.3920,18.2967
79.3921,18.2967
79.4966,18.4012
79.4966,18.4012
79.6195,18.4833
79.6195,18.4833
79.7561,18.5399
79.7561,18.5399
79.7561,18.5399
79.7561,18.5399
79.9011,18.5687
79.9011,18.5687
80.0489,18.5687
80.1465,18.5493
80.1939,18.5399
80.3305,18.4833
80.4534,18.4012
80.5580,18.2967
80.6401,18.1737
80.6967,18.0372
80.7255,17.8922
80.7255,17.7443
80.7255,17.7443
80.6967,17.5993
80.6967,17.5993
80.6967,17.5993
80.6684,17.5312
80.6401,17.4628
80.6401,17.4627
80.5580,17.3398
80.5579,17.3398
80.4534,17.2353
80.4534,17.2353
80.3305,17.1532
80.3305,17.1532
80.1939,17.0966
80.1939,17.0966
80.0489,17.0678
80.0489,17.0678
79.9011,17.0678
79.9011,17.0678
79.7561,17.0966
79.7561,17.0966
79.6195,17.1532
79.6195,17.1532
79.4966,17.2353
79.4966,17.2353
79.3921,17.3398
79.3920,17.3398
79.3099,17.4627
79.3099,17.4628
79.2533,17.5993
79.2533,17.5993
79.2245,17.7443
79.2245,17.7443
79.2245,17.8922
79.2245,17.8922
79.2245,17.8922
29.7255,17.8922
29.7255,17.8922
29.7255,17.7443
29.7255,17.7443
29.6967,17.5993
29.6967,17.5993
29.6967,17.5993
29.6684,17.5312
29.6401,17.4628
29.6401,17.4627
29.5580,17.3398
29.5579,17.3398
29.4534,17.2353
29.4534,17.2353
29.3305,17.1532
29.3305,17.1532
29.1939,17.0966
29.1939,17.0966
29.0489,17.0678
29.0489,17.0678
28.9011,17.0678
28.9011,17.0678
28.7561,17.0966
28.7561,17.0966
28.6195,17.1532
28.6195,17.1532
28.4966,17.2353
28.4966,17.2353
28.3921,17.3398
28.3920,17.3398
28.3099,17.4627
28.3099,17.4628
28.2533,17.5993
28.2533,17.5993
28.2245,17.7443
28.2245,17.7443
28.2245,17.8922
28.2245,17.8922
28.2245,17.8922
18.0750,17.8922
18.0750,17.0222
19.3245,17.0222
19.3533,17.1672
19.3533,17.1672
19.4099,17.3037
19.4099,17.3038
19.4920,17.4267
19.4921,17.4267
19.5966,17.5312
19.5966,17.5312
19.7195,17.6133
19.7195,17.6133
19.8561,17.6699
19.8561,17.6699
19.8561,17.6699
19.8561,17.6699
20.0011,17.6988
20.0011,17.6988
20.1489,17.6988
20.2465,17.6793
20.2939,17.6699
20.3421,17.6500
20.4055,17.6237
20.4305,17.6133
20.4305,17.6133
20.4305,17.6133
20.5534,17.5312
20.6580,17.4267
20.7401,17.3037
20.7967,17.1672
20.8255,17.0222
20.8255,16.8743
20.8255,16.8743
20.7967,16.7293
20.7967,16.7293
20.7967,16.7293
20.7967,16.7293
20.7401,16.5928
20.7401,16.5927
20.6580,16.4698
20.6579,16.4698
20.5534,16.3653
20.5534,16.3653
20.4305,16.2832
20.4305,16.2832
20.2939,16.2266
20.2939,16.2266
20.1489,16.1977
20.1489,16.1977
20.0011,16.1977
20.0011,16.1977
19.8561,16.2266
19.8561,16.2266
19.7195,16.2832
19.7195,16.2832
19.5966,16.3653
19.5966,16.3653
19.4921,16.4698
19.4920,16.4698
19.4099,16.5927
19.4099,16.5928
19.3533,16.7293
19.3533,16.7293
19.3245,16.8743
19.3245,16.8743
19.3245,17.0222
19.3245,17.0222
19.3245,17.0222
18.0750,17.0222
18.0750,9.8722
18.0947,9.8052
18.1475,9.7595
18.1990,9.7482
31.2623,9.7482
Z" /> 
</g>
<g style="fill:#FFFFFF; fill-opacity:1.0000; stroke:none;">
<circle cx="33.3100" cy="35.1482" r="0.1500" /> 
</g>
<g style="fill:#FFFFFF; fill-opacity:1.0000; stroke:none;">
<circle cx="29.6250" cy="32.2482" r="0.1500" /> 
</g>
<g style="fill:#FFFFFF; fill-opacity:1.0000; stroke:none;">
<circle cx="41.1250" cy="28.4932" r="0.1500" /> 
</g>
<g style="fill:#FFFFFF; fill-opacity:1.0000; stroke:none;">
<circle cx="22.5750" cy="33.5943" r="0.1500" /> 
</g>
<g style="fill:#FFFFFF; fill-opacity:1.0000; stroke:none;">
<circle cx="57.0950" cy="52.2482" r="0.1500" /> 
</g>
<g style="fill:#FFFFFF; fill-opacity:1.0000; stroke:none;">
<circle cx="45.5650" cy="51.7482" r="0.1500" /> 
</g>
<g style="fill:#FFFFFF; fill-opacity:1.0000; stroke:none;">
<circle cx="50.5950" cy="50.2032" r="0.1500" /> 
</g>
<g style="fill:#FFFFFF; fill-opacity:1.0000; stroke:none;">
<circle cx="48.8400" cy="30.9492" r="0.1500" /> 
</g>
<g style="fill:#FFFFFF; fill-opacity:1.0000; stroke:none;">
<circle cx="43.5550" cy="54.2482" r="0.1500" /> 
</g>
<g style="fill:#FFFFFF; fill-opacity:1.0000; stroke:none;">
<circle cx="35.5750" cy="39.2482" r="0.1500" /> 
</g>
<g style="fill:#FFFFFF; fill-opacity:1.0000; stroke:none;">
<circle cx="46.5550" cy="52.7482" r="0.1500" /> 
</g>
<g style="fill:#FFFFFF; fill-opacity:1.0000; stroke:none;">
<circle cx="34.6400" cy="37.2482" r="0.1500" /> 
</g>
<g style="fill:#FFFFFF; fill-opacity:1.0000; stroke:none;">
<circle cx="54.5500" cy="34.2482" r="0.1500" /> 
</g>
<g style="fill:#FFFFFF; fill-opacity:1.0000; stroke:none;">
<circle cx="39.0950" cy="50.2032" r="0.1500" /> 
</g>
<g style="fill:#FFFFFF; fill-opacity:1.0000; stroke:none;">
<circle cx="38.5950" cy="30.2932" r="0.1500" /> 
</g>
<g style="fill:#FFFFFF; fill-opacity:1.0000; stroke:none;">
<circle cx="52.6750" cy="50.2482" r="0.1500" /> 
</g>
<g style="fill:#FFFFFF; fill-opacity:1.0000; stroke:none;">
<circle cx="32.0350" cy="44.2482" r="0.1500" /> 
</g>
<g style="fill:#FFFFFF; fill-opacity:1.0000; stroke:none;">
<circle cx="39.0750" cy="31.2482" r="0.1500" /> 
</g>
<g style="fill:#FFFFFF; fill-opacity:1.0000; stroke:none;">
<circle cx="54.5950" cy="54.2482" r="0.1500" /> 
</g>
<g style="fill:#FFFFFF; fill-opacity:1.0000; stroke:none;">
<circle cx="51.5250" cy="51.7482" r="0.1500" /> 
</g>
<g style="fill:#FFFFFF; fill-opacity:1.0000; stroke:none;">
<circle cx="25.1750" cy="12.6783" r="0.1500" /> 
</g>
<g style="fill:#FFFFFF; fill-opacity:1.0000; stroke:none;">
<circle cx="27.7050" cy="12.6783" r="0.1500" /> 
</g>
<g style="fill:#FFFFFF; fill-opacity:1.0000; stroke:none;">
<circle cx="79.9750" cy="12.6783" r="0.1500" /> 
</g>
<g style="fill:#FFFFFF; fill-opacity:1.0000; stroke:none;">
<circle cx="78.7050" cy="12.6783" r="0.1500" /> 
</g>
<g style="fill:#FFFFFF; fill-opacity:1.0000; stroke:none;">
<circle cx="26.4450" cy="12.6783" r="0.1500" /> 
</g>
<g style="fill:#FFFFFF; fill-opacity:1.0000; stroke:none;">
<circle cx="34.2250" cy="11.1982" r="0.1250" /> 
</g>
<g style="fill:#FFFFFF; fill-opacity:1.0000; stroke:none;">
<circle cx="28.9750" cy="12.6783" r="0.1500" /> 
</g>
<g style="fill:#FFFFFF; fill-opacity:1.0000; stroke:none;">
<circle cx="22.2715" cy="27.6982" r="0.1500" /> 
</g>
<g style="fill:#FFFFFF; fill-opacity:1.0000; stroke:none;">
<circle cx="76.1750" cy="12.6783" r="0.1500" /> 
</g>
<g style="fill:#FFFFFF; fill-opacity:1.0000; stroke:none;">
<circle cx="77.4450" cy="12.6783" r="0.1500" /> 
</g>
<g style="fill:#FFFFFF; fill-opacity:1.0000; stroke:none;">
<circle cx="73.2250" cy="11.1982" r="0.1250" /> 
</g>
<g style="fill:#FFFFFF; fill-opacity:1.0000; stroke:none;">
<circle cx="20.0750" cy="16.9482" r="0.1500" /> 
</g>
<g style="fill:#FFFFFF; fill-opacity:1.0000; stroke:none;">
<circle cx="35.5850" cy="29.2482" r="0.1500" /> 
</g>
<g style="fill:#FFFFFF; fill-opacity:1.0000; stroke:none;">
<circle cx="36.5650" cy="29.2482" r="0.1500" /> 
</g>
<g style="fill:#FFFFFF; fill-opacity:1.0000; stroke:none;">
<circle cx="30.5650" cy="27.2482" r="0.1500" /> 
</g>
<g style="fill:#FFFFFF; fill-opacity:1.0000; stroke:none;">
<circle cx="30.5750" cy="27.7482" r="0.1500" /> 
</g>
<g style="fill:#FFFFFF; fill-opacity:1.0000; stroke:none;">
<circle cx="33.5650" cy="27.2482" r="0.1500" /> 
</g>
<g style="fill:#FFFFFF; fill-opacity:1.0000; stroke:none;">
<circle cx="28.8250" cy="19.7482" r="0.1250" /> 
</g>
<g style="fill:#FFFFFF; fill-opacity:1.0000; stroke:none;">
<circle cx="31.3750" cy="27.7482" r="0.1500" /> 
</g>
<g style="fill:#FFFFFF; fill-opacity:1.0000; stroke:none;">
<circle cx="38.3999" cy="27.9982" r="0.1500" /> 
</g>
<g style="fill:#FFFFFF; fill-opacity:1.0000; stroke:none;">
<circle cx="47.0750" cy="49.2482" r="0.1500" /> 
</g>
<g style="fill:#FFFFFF; fill-opacity:1.0000; stroke:none;">
<circle cx="47.5750" cy="51.7482" r="0.1500" /> 
</g>
<g style="fill:#FFFFFF; fill-opacity:1.0000; stroke:none;">
<circle cx="52.0750" cy="49.2482" r="0.1500" /> 
</g>
<g style="fill:#FFFFFF; fill-opacity:1.0000; stroke:none;">
<circle cx="52.0750" cy="52.5482" r="0.1500" /> 
</g>
<g style="fill:#FFFFFF; fill-opacity:1.0000; stroke:none;">
<circle cx="28.9750" cy="17.8182" r="0.1500" /> 
</g>
<g style="fill:#FFFFFF; fill-opacity:1.0000; stroke:none;">
<circle cx="34.2250" cy="10.2482" r="0.1250" /> 
</g>
<g style="fill:#FFFFFF; fill-opacity:1.0000; stroke:none;">
<circle cx="35.5950" cy="9.2482" r="0.1500" /> 
</g>
<g style="fill:#FFFFFF; fill-opacity:1.0000; stroke:none;">
<circle cx="31.9250" cy="9.2982" r="0.1500" /> 
</g>
<g style="fill:#FFFFFF; fill-opacity:1.0000; stroke:none;">
<circle cx="73.2250" cy="10.2482" r="0.1250" /> 
</g>
<g style="fill:#FFFFFF; fill-opacity:1.0000; stroke:none;">
<circle cx="79.9750" cy="17.8182" r="0.1500" /> 
</g>
<g style="fill:#FFFFFF; fill-opacity:1.0000; stroke:none;">
<circle cx="70.9250" cy="9.2982" r="0.1500" /> 
</g>
<g style="fill:#FFFFFF; fill-opacity:1.0000; stroke:none;">
<circle cx="68.5950" cy="9.2482" r="0.1500" /> 
</g>
<g style="fill:#FFFFFF; fill-opacity:1.0000; stroke:none;">
<circle cx="82.0750" cy="35.9982" r="0.1500" /> 
</g>
<g style="fill:#FFFFFF; fill-opacity:1.0000; stroke:none;">
<circle cx="82.0750" cy="34.9982" r="0.1500" /> 
</g>
<g style="fill:#FFFFFF; fill-opacity:1.0000; stroke:none;">
<circle cx="80.9250" cy="35.4982" r="0.1500" /> 
</g>
<g style="fill:#FFFFFF; fill-opacity:1.0000; stroke:none;">
<circle cx="80.9250" cy="34.4982" r="0.1500" /> 
</g>
<g style="fill:#FFFFFF; fill-opacity:1.0000; stroke:none;">
<circle cx="101.8250" cy="86.9982" r="1.6000" /> 
</g>
<g style="fill:#FFFFFF; fill-opacity:1.0000; stroke:none;">
<circle cx="101.8250" cy="8.4982" r="1.6000" /> 
</g>
<g style="fill:#FFFFFF; fill-opacity:1.0000; stroke:none;">
<circle cx="3.3250" cy="8.4982" r="1.6000" /> 
</g>
<g style="fill:#FFFFFF; fill-opacity:1.0000; stroke:none;">
<circle cx="81.2550" cy="38.1382" r="0.3250" /> 
</g>
<g style="fill:#FFFFFF; fill-opacity:1.0000; stroke:none;">
<circle cx="81.2550" cy="32.3582" r="0.3250" /> 
</g>
<g style="fill:none; 
stroke:#FFFFFF; stroke-width:0.6000; stroke-opacity:1; 
stroke-linecap:round; stroke-linejoin:round;">
<path d="M80.1750 39.5682
L81.2750 39.5682
" />
<path d="M84.6050 39.5682
L85.2050 39.5682
" />
<path d="M80.1750 30.9282
L81.2750 30.9282
" />
<path d="M84.6050 30.9282
L85.2050 30.9282
" />
</g>
<g style="fill:#FFFFFF; fill-opacity:1.0000; stroke:none;">
<circle cx="3.3250" cy="86.9982" r="1.6000" /> 
</g> 
</svg>
